<svg width="95" height="50" viewBox="0 0 95 50" fill="none" xmlns="http://www.w3.org/2000/svg">
<path fill-rule="evenodd" clip-rule="evenodd" d="M65.4763 35.9057L51.8789 41.7347C51.5848 41.8608 51.2754 41.9705 50.971 42.0683C50.5007 42.2194 50.0171 42.3453 49.5299 42.4286C48.406 42.6209 47.0304 42.6145 46.233 41.6664C45.424 40.7044 45.673 39.4031 46.1328 38.3462C46.5239 37.4476 47.1159 36.5585 47.7312 35.7969L53.5238 28.6273H50.5663C50.3998 28.6273 50.2459 28.5867 50.1123 28.5094L48.8455 31.6412C48.8443 31.644 48.8434 31.6464 48.8422 31.6492C48.5624 32.3221 48.1124 32.8809 47.5157 33.3039C46.9081 33.7345 46.2118 33.9682 45.4651 33.9682H38.4675C38.1596 33.9682 37.8948 33.829 37.7218 33.5762C37.639 33.4552 37.5883 33.3244 37.5705 33.1897C36.9652 33.6804 36.221 33.9682 35.3451 33.9682C34.8402 33.9682 34.3352 33.9682 33.8302 33.9682C33.403 33.9682 32.9757 33.9682 32.5483 33.9682C32.1924 33.9682 31.8364 33.9682 31.4804 33.9682C31.1895 33.9682 30.8986 33.9682 30.6077 33.9682C30.3748 33.9682 30.142 33.9682 29.9091 33.9682C29.7264 33.9682 29.5437 33.9682 29.361 33.9682C29.2238 33.9682 29.0865 33.9682 28.9493 33.9682C28.8521 33.9682 28.7549 33.9682 28.6578 33.9682C28.5918 33.9682 28.5259 33.9682 28.46 33.9682C28.4217 33.9682 28.3833 33.9682 28.3449 33.9682C28.3237 33.9682 28.3025 33.9682 28.2813 33.9682C28.272 33.9682 28.2626 33.9682 28.2532 33.9682H27.8288C27.5727 33.9682 27.3464 33.8719 27.178 33.6941C27.0127 33.868 26.7818 33.9682 26.5252 33.9682H20.7581C19.7574 33.9682 18.8803 33.5814 18.3 32.7594C17.914 32.2127 17.7589 31.6039 17.797 30.9838L17.5311 31.6412C17.53 31.644 17.529 31.6464 17.5278 31.6492C17.248 32.3221 16.7981 32.8809 16.2013 33.3039C15.5937 33.7345 14.8975 33.9682 14.1507 33.9682H7.15313C6.84523 33.9682 6.58041 33.829 6.40746 33.5762C6.2345 33.3235 6.20176 33.0279 6.31532 32.7439L9.09015 25.8033L6.96885 27.8915L4.76492 33.4036C4.62586 33.7514 4.30418 33.9682 3.92712 33.9682H0.904275C0.595887 33.9682 0.330684 33.8285 0.157837 33.5751C-0.0150093 33.3216 -0.047095 33.0254 0.0675135 32.7413L2.35188 27.0794L0.257996 21.2613C0.156244 20.9786 0.195803 20.6905 0.370023 20.4452C0.544243 20.1999 0.804393 20.066 1.10679 20.066H4.4317C4.81975 20.066 5.15006 20.297 5.28055 20.6598L6.01506 22.7014L8.43882 20.3243C8.61403 20.1525 8.82605 20.066 9.07241 20.066H12.7298C12.8084 20.066 12.8845 20.0754 12.9571 20.0935L14.1371 17.651C14.2906 17.3331 14.5947 17.1432 14.9499 17.1432H19.0879L21.7333 10.4025C21.7444 10.3744 21.7549 10.3509 21.7686 10.324L21.7773 10.3069C22.4522 8.98027 23.5793 8.08272 25.1213 8.08272H29.607C30.6012 8.08272 31.4677 8.47945 32.0317 9.30701C32.4201 9.87706 32.5635 10.5074 32.5064 11.1477C33.1832 10.3496 34.0885 9.83263 35.231 9.83263H36.24C36.4016 9.83263 36.5513 9.87101 36.6822 9.94401C36.8119 9.87286 36.961 9.83263 37.1194 9.83263H39.9852C40.2491 9.83263 40.4763 9.93262 40.6534 10.1267C40.8305 10.3208 40.9083 10.555 40.8821 10.8156L40.6624 13.0066L42.4445 10.2447C42.6151 9.98032 42.8872 9.83263 43.2036 9.83263H46.1976C46.5357 9.83263 46.8258 10.0032 46.9882 10.2976C46.9892 10.2993 46.99 10.301 46.991 10.3027C47.5317 9.99962 48.1538 9.83263 48.854 9.83263C48.8713 9.83263 48.8886 9.83263 48.9058 9.83263C48.9404 9.83263 48.9749 9.83263 49.0094 9.83263C49.0658 9.83263 49.1223 9.83263 49.1787 9.83263C49.2625 9.83263 49.3464 9.83263 49.4302 9.83263C49.5471 9.83263 49.664 9.83263 49.7808 9.83263C49.9368 9.83263 50.0929 9.83263 50.2489 9.83263C50.4488 9.83263 50.6487 9.83263 50.8487 9.83263C51.098 9.83263 51.3474 9.83263 51.5967 9.83263C51.901 9.83263 52.2052 9.83263 52.5094 9.83263C52.8756 9.83263 53.2418 9.83263 53.6079 9.83263C54.6152 9.83263 55.5076 10.2044 56.1117 11.0196C56.7178 11.8375 56.7966 12.8067 56.4558 13.7512C56.4504 13.7674 56.4447 13.7834 56.4387 13.7994H59.3182C59.6344 13.7994 59.9062 13.9468 60.0769 14.2109C60.2476 14.475 60.2692 14.7816 60.1374 15.0668L59.2906 16.8981H60.0392L65.3219 4.39736C65.3246 4.39098 65.3269 4.38564 65.3298 4.37937C65.6344 3.7005 66.0012 3.00663 66.3841 2.36989C66.6874 1.86548 67.0285 1.35273 67.4234 0.915097C67.8347 0.459206 68.3674 0.0243569 69.0133 0.00173135C69.8086 -0.0261826 70.4852 0.28387 70.9785 0.900594C71.1469 1.11104 71.2823 1.34084 71.4049 1.57969C71.4834 1.73245 71.5548 1.8922 71.6371 2.04251C71.6426 2.05216 71.6479 2.06197 71.6532 2.07189C71.6766 2.11616 71.6958 2.16016 71.7109 2.20486C71.9876 2.91465 72.2186 3.64761 72.4181 4.38215C72.5115 4.72606 72.602 5.07684 72.6765 5.42544C72.6776 5.43084 72.6785 5.43541 72.6796 5.44081L74.7446 16.0239L89.54 15.9694C89.7463 15.957 89.957 15.9542 90.1631 15.9545C90.6462 15.955 91.1329 15.9801 91.6125 16.038C92.772 16.1779 94.2092 16.5504 94.7934 17.6573C95.1483 18.3297 95.0131 19.0532 94.6372 19.6846C94.3285 20.2028 93.8691 20.6636 93.4108 21.0545C92.8367 21.5442 92.1543 22.0214 91.4956 22.3981L78.2059 30.0788L82.5492 43.8834C82.63 44.0844 82.7033 44.292 82.7725 44.4967C82.9357 44.9789 83.0774 45.4722 83.1849 45.9696C83.4324 47.1152 83.5925 48.7038 82.6215 49.5689C82.0233 50.102 81.2346 50.0797 80.5155 49.8302C79.9019 49.6174 79.3038 49.2456 78.7778 48.8693C78.3029 48.5294 77.8476 48.1557 77.4122 47.7672C77.2129 47.5893 77.0123 47.4058 76.8231 47.2172L65.4763 35.9057ZM65.9817 28.8106C66.0227 28.7895 66.0648 28.7717 66.1075 28.7573C66.2337 28.7139 66.3626 28.6997 66.4916 28.7148C66.6205 28.7287 66.746 28.7707 66.8597 28.8396C66.9484 28.8914 67.0248 28.9558 67.0883 29.0319L73.2539 35.2975L70.4738 27.7711C70.3197 27.3538 70.4921 26.8954 70.8843 26.6804L80.2601 21.541L70.53 21.4928C70.1038 21.4906 69.7462 21.2041 69.6543 20.7912L67.8344 12.61L64.2504 20.905C64.1052 21.241 63.7905 21.447 63.422 21.447H53.7819C53.4736 21.447 53.2084 21.3073 53.0356 21.0539C52.9784 20.9702 52.9367 20.8818 52.9105 20.7907C52.3043 21.2133 51.577 21.447 50.7408 21.447C50.7345 21.447 50.7282 21.447 50.722 21.447C50.7047 21.447 50.6874 21.447 50.6701 21.447C50.6364 21.447 50.6027 21.447 50.569 21.447C50.5125 21.447 50.456 21.447 50.3996 21.447C50.3173 21.447 50.235 21.447 50.1527 21.447C50.0366 21.447 49.9205 21.447 49.8045 21.447C49.6492 21.447 49.494 21.447 49.3387 21.447C49.1411 21.447 48.9436 21.447 48.746 21.447C48.4982 21.447 48.2505 21.447 48.0027 21.447C47.6992 21.447 47.3958 21.447 47.0924 21.447C46.7294 21.447 46.3663 21.447 46.0033 21.447C44.9893 21.447 44.0791 21.0818 43.4728 20.2553C42.8812 19.4487 42.7927 18.5014 43.1093 17.5671C43.1157 17.5448 43.1226 17.5227 43.1298 17.5006C43.132 17.4939 43.134 17.4881 43.1363 17.4815C43.1534 17.433 43.1725 17.3846 43.1939 17.3377C43.2029 17.3162 43.2112 17.2944 43.2196 17.2728C43.2479 17.2003 43.2785 17.1288 43.3099 17.0575C43.3438 16.9734 43.3786 16.8896 43.4118 16.8052C43.4442 16.723 43.476 16.6407 43.5081 16.5585L40.6225 21.0345C40.4519 21.2992 40.1798 21.447 39.8632 21.447H38.3155C37.4903 21.447 36.7421 21.1586 36.183 20.5497C35.6224 19.9394 35.4068 19.1719 35.4694 18.3552C35.4699 18.3487 35.4704 18.3432 35.471 18.3368L35.8929 14.0147L33.1416 20.883C33.0024 21.2305 32.6809 21.447 32.304 21.447H29.4195C29.2349 21.447 29.0657 21.3969 28.9226 21.3023C28.7791 21.3975 28.6111 21.447 28.4264 21.447H25.1967C24.7783 21.447 24.4249 21.1737 24.3226 20.7711L23.6295 18.041C23.2724 18.9783 22.9062 19.9126 22.553 20.8513C22.4189 21.2078 22.0922 21.4329 21.7086 21.4329H13.7417C13.6625 21.4329 13.5861 21.4236 13.5134 21.4056C13.4735 21.4735 13.4237 21.5372 13.3646 21.5954L12.5783 22.3695C12.6898 22.3591 12.8037 22.3538 12.92 22.3538H13.9504C14.2584 22.3538 14.5232 22.4931 14.6962 22.746C14.8691 22.9989 14.9017 23.2946 14.788 23.5786L12.6358 28.9517C12.5771 29.0982 12.5185 29.2447 12.4599 29.3913L13.6139 29.3912L15.2688 25.2722L16.2086 22.9188C16.3476 22.5708 16.6693 22.3538 17.0465 22.3538H19.9548C20.2634 22.3538 20.5287 22.4936 20.7015 22.7473C20.8729 22.9988 20.9057 23.2924 20.7942 23.5743C20.9936 23.3555 21.2212 23.1596 21.4751 22.9886C22.0888 22.5752 22.7849 22.3538 23.5264 22.3538H24.6003C24.9071 22.3538 25.1709 22.492 25.3442 22.7433C25.5175 22.9945 25.5515 23.2887 25.4403 23.5725L23.5159 28.483C23.5059 28.5228 23.4931 28.5626 23.4775 28.6022L23.155 29.4193H24.9723C25.0051 29.4193 25.0373 29.4208 25.0689 29.4239H27.6156C27.8508 29.4239 28.0609 29.5052 28.2242 29.6563C28.2693 29.5433 28.3143 29.4302 28.3591 29.3171C28.5157 28.9213 28.6735 28.526 28.8311 28.1306C28.9617 27.8033 29.0932 27.4764 29.2228 27.1487C29.3292 26.88 29.4363 26.6116 29.5433 26.3431C29.629 26.1282 29.7142 25.9132 29.7996 25.6982C29.8692 25.5227 29.9398 25.3475 30.0128 25.1734C30.0599 25.0612 30.1058 24.9485 30.1486 24.8346C30.151 24.8285 30.153 24.8233 30.1554 24.8172C30.1924 24.7247 30.2289 24.6319 30.2663 24.5395C30.2917 24.4767 30.3166 24.4137 30.3423 24.3511C30.3473 24.3391 30.3525 24.3272 30.3575 24.3152C30.3658 24.2889 30.3739 24.2627 30.3833 24.2365C30.406 24.1733 30.4331 24.1117 30.4646 24.0523C30.6963 23.5567 31.0543 23.1496 31.514 22.8463C31.9902 22.5322 32.5299 22.3538 33.1031 22.3538C33.492 22.3538 33.8809 22.3538 34.2698 22.3538C34.5937 22.3538 34.9175 22.3538 35.2413 22.3538C35.5071 22.3538 35.7728 22.3538 36.0386 22.3538C36.2511 22.3538 36.4635 22.3538 36.676 22.3538C36.8415 22.3538 37.007 22.3538 37.1725 22.3538C37.2971 22.3538 37.4218 22.3538 37.5465 22.3538C37.6351 22.3538 37.7236 22.3538 37.8122 22.3538C37.8718 22.3538 37.9315 22.3538 37.9911 22.3538C38.0279 22.3538 38.0648 22.3538 38.1016 22.3538C38.1204 22.3538 38.1393 22.3538 38.1581 22.3538C38.1659 22.3538 38.1738 22.3538 38.1816 22.3538C39.1804 22.3538 40.0544 22.7471 40.6226 23.575C40.7994 23.8323 40.9254 24.1027 41.005 24.3809C41.7003 23.1801 42.7818 22.3538 44.2344 22.3538H45.2648C45.5728 22.3538 45.8376 22.4931 46.0105 22.746C46.1835 22.9989 46.2161 23.2946 46.1023 23.5786L43.9502 28.9517C43.8915 29.0982 43.8329 29.2447 43.7744 29.3913L44.9283 29.3912L46.5831 25.2722L47.523 22.9188C47.6619 22.5708 47.9837 22.3538 48.3609 22.3538H51.2692C51.4848 22.3538 51.6793 22.4221 51.8358 22.5498C51.9913 22.4244 52.1885 22.3538 52.4037 22.3538H63.7111C64.0687 22.3538 64.3748 22.5467 64.5268 22.8679C64.6789 23.1891 64.6331 23.546 64.4049 23.8192L56.2606 33.5655L65.9817 28.8106ZM30.0252 16.6548C29.9355 16.7302 29.8419 16.8019 29.7444 16.8699C29.3801 17.1244 28.9847 17.3091 28.5664 17.4167L29.0076 19.1701L30.0252 16.6548ZM27.0709 12.9494C27.1138 12.8407 27.1567 12.7321 27.1998 12.6235L25.7352 12.62C25.693 12.73 25.6507 12.8398 25.6083 12.9496L27.0709 12.9494ZM51.15 14.3839C51.1335 14.3839 51.117 14.3839 51.1005 14.3839C50.8967 14.3839 50.6928 14.3839 50.4889 14.3839C50.2357 14.3839 49.9824 14.3839 49.7291 14.3839C49.6327 14.3839 49.5362 14.3839 49.4398 14.3839C49.4033 14.4771 49.3657 14.5699 49.3286 14.6629C49.2718 14.8058 49.2148 14.9486 49.1584 15.0916C49.0822 15.2848 49.0032 15.477 48.9238 15.6689C48.8306 15.894 48.7394 16.1199 48.6493 16.3462C48.576 16.5304 48.5017 16.7142 48.4275 16.8981C48.4441 16.8981 48.4608 16.8981 48.4774 16.8981C48.6797 16.8981 48.8821 16.8981 49.0844 16.8981C49.3377 16.8981 49.5909 16.8981 49.8442 16.8981C49.9399 16.8981 50.0356 16.8981 50.1313 16.8981C50.1733 16.7954 50.2147 16.6924 50.258 16.5903C50.3143 16.4576 50.3666 16.3233 50.4194 16.1892C50.4936 16.0006 50.5692 15.8124 50.6449 15.6244C50.7395 15.3894 50.8355 15.1549 50.9317 14.9205C51.0051 14.7419 51.0777 14.5629 51.15 14.3839ZM33.2427 29.4193C33.2808 29.4193 33.3189 29.4193 33.357 29.4193C33.5812 29.4193 33.8055 29.4193 34.0298 29.4193C34.2031 29.4193 34.3764 29.4193 34.5497 29.4193C34.6141 29.4193 34.6786 29.4193 34.743 29.4193C34.7758 29.3371 34.8086 29.255 34.8413 29.1727C34.9605 28.8732 35.0801 28.5737 35.2014 28.275C35.2995 28.0333 35.3984 27.7919 35.4959 27.55C35.5732 27.3581 35.65 27.1661 35.7265 26.974C35.7357 26.951 35.7448 26.928 35.7539 26.9051C35.6528 26.9051 35.5517 26.9051 35.4507 26.9051C35.2453 26.9051 35.0398 26.9051 34.8344 26.9051C34.6737 26.9051 34.5129 26.9051 34.3521 26.9051C34.3178 26.9051 34.2836 26.9051 34.2493 26.9051C34.2065 27.0114 34.1637 27.1177 34.1212 27.2241C33.994 27.5418 33.8676 27.8598 33.7407 28.1776C33.6362 28.4395 33.5309 28.7012 33.4252 28.9626C33.3637 29.1146 33.3032 29.2669 33.2427 29.4193Z" fill="#FEFEFE"/>
<path fill-rule="evenodd" clip-rule="evenodd" d="M70.854 2.48633C71.4525 4.0096 71.7946 5.61116 71.7946 5.61116L74.0015 16.9214L89.5698 16.864C89.5698 16.864 93.2325 16.6281 93.9949 18.0725C94.7571 19.5169 91.0436 21.6246 91.0436 21.6246L77.1313 29.6651L81.6993 44.184C81.6993 44.184 83.1963 47.855 82.0193 48.9037C80.8422 49.9524 77.4618 46.5865 77.4618 46.5865L65.6821 34.8435C66.6831 34.0745 66.7406 30.5917 66.3936 29.6065L75.5477 38.9091L71.32 27.4636L83.7246 20.664L70.5344 20.5987L68.1103 9.70165C67.9173 9.65695 70.8931 4.31268 70.854 2.48633Z" fill="#0B4699"/>
<path fill-rule="evenodd" clip-rule="evenodd" d="M65.6822 34.8434C66.7061 34.0074 66.7235 30.5889 66.3937 29.6064L52.871 36.2209L63.7111 23.2484H52.4038L50.5663 27.7331H53.9505L54.6343 26.0644H56.75L48.4344 36.3565C47.521 37.4871 45.9202 39.8987 46.925 41.0935C47.9298 42.2882 50.9262 41.169 51.5214 40.9138L65.6822 34.8434ZM35.354 30.3138C35.4634 30.0433 35.572 29.7723 35.6797 29.5013C35.7982 29.2038 35.9169 28.9064 36.0374 28.6094C36.1359 28.3669 36.2352 28.1248 36.3328 27.8821C36.4107 27.6891 36.488 27.4959 36.5649 27.3027C36.6259 27.1495 36.6861 26.9963 36.7459 26.8506C36.7917 26.7318 36.8391 26.613 36.8896 26.4953C36.9233 26.4164 36.9566 26.3373 36.9844 26.2685C37.0053 26.2115 37.0283 26.1554 37.0501 26.0987C37.0616 26.0694 37.0724 26.0399 37.0841 26.0108C36.7961 26.0108 36.5078 26.0108 36.2198 26.0108C35.9634 26.0108 35.7071 26.0108 35.4507 26.0108C35.2453 26.0108 35.0398 26.0108 34.8344 26.0108C34.6737 26.0108 34.5129 26.0108 34.3521 26.0108C34.2315 26.0108 34.1106 26.0108 33.99 26.0108C33.9038 26.0108 33.8174 26.0108 33.7313 26.0108C33.7008 26.0108 33.6702 26.0108 33.6397 26.0108C33.5206 26.3051 33.4013 26.5995 33.2835 26.8941C33.1561 27.2122 33.0298 27.5303 32.9028 27.8484C32.7988 28.1091 32.6941 28.3694 32.5887 28.6296C32.5052 28.8364 32.4232 29.0435 32.3412 29.2504C32.2763 29.4135 32.2118 29.5766 32.1456 29.7392C32.0963 29.8606 32.0484 29.9825 31.9986 30.1039C31.9701 30.1738 31.9421 30.244 31.9133 30.3138C32.1147 30.3138 32.316 30.3138 32.5174 30.3138C32.7973 30.3138 33.0771 30.3138 33.357 30.3138C33.5812 30.3138 33.8056 30.3138 34.0298 30.3138C34.2032 30.3138 34.3763 30.3138 34.5497 30.3138C34.6805 30.3138 34.8116 30.3138 34.9424 30.3138C35.0365 30.3138 35.1306 30.3138 35.2246 30.3138C35.2678 30.3138 35.3108 30.3138 35.354 30.3138ZM18.7227 20.5387H13.7417L14.9499 18.0377H19.7041L22.5733 10.7272L22.5819 10.7102C23.1232 9.65782 23.9545 8.97731 25.1213 8.97731H29.6071C30.3347 8.97731 30.9063 9.25236 31.285 9.80813C31.6644 10.3649 31.7166 11.0197 31.4544 11.7362C31.3885 11.9044 31.3245 12.0733 31.2602 12.2419C31.0275 12.8496 30.4832 14.2563 30.2475 14.8714C30.0385 15.3836 29.6944 15.8112 29.2257 16.1387C28.7488 16.4716 28.2298 16.6326 27.6894 16.6326H27.44L28.4264 20.5527H25.1967L24.2014 16.6326H23.1989C23.1847 16.6663 23.1714 16.7004 23.1587 16.7347C22.8066 17.6862 22.067 19.586 21.7086 20.5387H19.6516H18.7227ZM32.6863 12.4786L32.6968 12.4594C33.2541 11.4325 34.0801 10.7272 35.231 10.7272H36.24L32.304 20.5527H29.4195L32.6863 12.4786ZM39.393 16.6328L43.2036 10.7272H46.1976L39.8632 20.5527H38.3155C37.7187 20.5527 37.2215 20.3527 36.8493 19.9474C36.4747 19.5395 36.3221 19.0233 36.3682 18.4232L37.1195 10.7272H39.9853L39.393 16.6328ZM6.20046 27.3882L3.92714 33.0739H0.904297L3.31552 27.0976L1.10681 20.9606H4.43172L5.64203 24.3249L9.07243 20.9606H12.7298L6.20046 27.3882ZM11.1338 30.2859L14.2249 30.2858L16.1064 25.6027L17.0466 23.2484H19.9548L16.6947 31.3082C16.4823 31.8188 16.1439 32.2457 15.6775 32.5762C15.2049 32.9111 14.6893 33.0739 14.1507 33.0739H7.15315L10.3948 24.9656L10.4056 24.9456C10.9587 23.9261 11.7837 23.2484 12.92 23.2484H13.9504L11.7982 28.6215C11.5762 29.1761 11.355 29.7311 11.1338 30.2859ZM22.63 28.2761H22.6383L21.8338 30.3138H24.9723L24.9715 30.3185H27.6156L27.4558 30.7247C27.2672 31.2036 27.0803 31.6828 26.8932 32.1618C26.8068 32.3828 26.7178 32.6032 26.628 32.8231L26.5253 33.0739H20.7581C20.0194 33.0739 19.4323 32.8044 19.0382 32.2464C18.6477 31.6932 18.589 31.0327 18.857 30.315L20.937 25.0235C21.1449 24.4943 21.4936 24.0575 21.9814 23.7288C22.4642 23.4036 22.9862 23.2484 23.5264 23.2484H24.6003L22.63 28.2761ZM42.4481 30.2859L45.5393 30.2858L47.4208 25.6027L48.3609 23.2484H51.2693L48.009 31.3082C47.7967 31.8188 47.4583 32.2457 46.9919 32.5762C46.5193 32.9111 46.0037 33.0739 45.4652 33.0739H38.4675L41.7092 24.9656L41.72 24.9456C42.2731 23.9261 43.0981 23.2484 44.2344 23.2484H45.2648L43.1126 28.6215C42.8905 29.1761 42.6693 29.7311 42.4481 30.2859ZM27.6873 13.8439C27.858 13.4062 28.3497 12.1694 28.5244 11.7324L25.112 11.7243C24.9472 12.165 24.4658 13.4041 24.298 13.8444L27.6873 13.8439ZM50.7441 17.7926C50.7481 17.7814 50.7517 17.7711 50.754 17.7648C50.7688 17.7236 50.7853 17.6826 50.8035 17.6421C50.8233 17.5979 50.8405 17.5516 50.8577 17.5066C50.8887 17.4261 50.921 17.3458 50.9538 17.2656C50.9988 17.1561 51.0427 17.0465 51.0889 16.9373C51.1484 16.7971 51.2035 16.6557 51.259 16.5146C51.3324 16.3282 51.4069 16.1423 51.4819 15.9564C51.5756 15.7233 51.671 15.4907 51.7665 15.2582C51.8816 14.9776 51.9947 14.6966 52.1081 14.4156C52.2324 14.1067 52.3583 13.7983 52.4834 13.4896C52.4756 13.4896 52.4679 13.4896 52.4601 13.4896C52.4256 13.4896 52.3911 13.4896 52.3566 13.4896C52.2994 13.4896 52.2421 13.4896 52.1849 13.4896C52.1002 13.4896 52.0155 13.4896 51.9309 13.4896C51.8125 13.4896 51.694 13.4896 51.5756 13.4896C51.4173 13.4896 51.2589 13.4896 51.1005 13.4896C50.8967 13.4896 50.6928 13.4896 50.4889 13.4896C50.2357 13.4896 49.9824 13.4896 49.7291 13.4896C49.4328 13.4896 49.1365 13.4896 48.8348 13.4899C48.8268 13.5091 48.8175 13.5293 48.8048 13.5567C48.7948 13.5771 48.7873 13.5956 48.7817 13.61C48.7612 13.6706 48.7362 13.7279 48.7107 13.7873C48.6788 13.8626 48.6483 13.9384 48.6205 14.0064C48.5783 14.1162 48.5338 14.2254 48.4903 14.3347C48.4331 14.4784 48.3758 14.622 48.3191 14.7658C48.2448 14.9541 48.1676 15.1417 48.0901 15.3293C47.9952 15.5582 47.9025 15.788 47.811 16.0177C47.6986 16.3001 47.5838 16.5818 47.4706 16.8638C47.3461 17.1737 47.2201 17.4831 47.0941 17.7926C47.102 17.7926 47.1099 17.7926 47.1179 17.7926C47.1524 17.7926 47.1869 17.7926 47.2214 17.7926C47.2779 17.7926 47.3343 17.7926 47.3908 17.7926C47.4755 17.7926 47.5601 17.7926 47.6448 17.7926C47.764 17.7926 47.8832 17.7926 48.0024 17.7926C48.1607 17.7926 48.3191 17.7926 48.4774 17.7926C48.6798 17.7926 48.882 17.7926 49.0844 17.7926C49.3376 17.7926 49.591 17.7926 49.8442 17.7926C50.1442 17.7926 50.4443 17.7926 50.7441 17.7926ZM55.6025 13.463C55.5941 13.4902 55.5828 13.5164 55.5699 13.5427C55.5636 13.5561 55.5581 13.5701 55.5476 13.5936C55.5343 13.6226 55.5224 13.6546 55.5109 13.6841C55.4856 13.7486 55.4609 13.8131 55.4347 13.8773C55.3981 13.968 55.3605 14.0581 55.3222 14.1554C55.2691 14.2836 55.2177 14.4122 55.1661 14.541C55.0965 14.7148 55.0268 14.8888 54.9568 15.0625C54.8677 15.2833 54.779 15.5042 54.6901 15.725C54.5788 16.0015 54.4664 16.278 54.3546 16.5543C54.218 16.8918 54.083 17.2297 53.9488 17.5677C53.7871 17.9741 53.6209 18.3797 53.4547 18.7851L53.4486 18.8005L53.4408 18.8155C52.8632 19.9354 51.9523 20.5527 50.7408 20.5527C50.7345 20.5527 50.7283 20.5527 50.722 20.5527C50.7046 20.5527 50.6875 20.5527 50.6701 20.5527C50.6364 20.5527 50.6026 20.5527 50.569 20.5527C50.5124 20.5527 50.4561 20.5527 50.3996 20.5527C50.3172 20.5527 50.2351 20.5527 50.1527 20.5527C50.0367 20.5527 49.9205 20.5527 49.8045 20.5527C49.6493 20.5527 49.4939 20.5527 49.3388 20.5527C49.1412 20.5527 48.9435 20.5527 48.746 20.5527C48.4983 20.5527 48.2504 20.5527 48.0027 20.5527C47.6993 20.5527 47.3958 20.5527 47.0924 20.5527C46.7293 20.5527 46.3664 20.5527 46.0034 20.5527C45.2432 20.5527 44.6185 20.2976 44.2016 19.7291C43.8022 19.1847 43.7238 18.5398 43.9719 17.8285C43.9757 17.8131 43.9807 17.7964 43.9871 17.7771C43.9976 17.7473 44.0098 17.7175 44.0189 17.6985C44.0334 17.6646 44.0469 17.63 44.0602 17.5958C44.0866 17.5283 44.1146 17.4639 44.1414 17.4031C44.1784 17.3113 44.2151 17.2226 44.2514 17.1306C44.3028 16.9998 44.353 16.869 44.4053 16.7384C44.4752 16.5646 44.5468 16.3912 44.6168 16.2174C44.7062 15.9961 44.7965 15.7749 44.8863 15.5536C44.9977 15.279 45.1081 15.0043 45.2179 14.7292C45.3535 14.3901 45.4908 14.0515 45.6277 13.7127C45.791 13.3088 45.953 12.9045 46.1147 12.5001L46.1239 12.4774L46.1361 12.4556C46.7404 11.3703 47.636 10.7272 48.854 10.7272C48.8713 10.7272 48.8885 10.7272 48.9058 10.7272C48.9403 10.7272 48.9749 10.7272 49.0094 10.7272C49.0659 10.7272 49.1222 10.7272 49.1787 10.7272C49.2626 10.7272 49.3464 10.7272 49.4302 10.7272C49.5471 10.7272 49.664 10.7272 49.7808 10.7272C49.9369 10.7272 50.0929 10.7272 50.2489 10.7272C50.4488 10.7272 50.6488 10.7272 50.8487 10.7272C51.0981 10.7272 51.3474 10.7272 51.5968 10.7272C51.901 10.7272 52.2052 10.7272 52.5095 10.7272C52.8756 10.7272 53.2417 10.7272 53.608 10.7272C54.3619 10.7272 54.9702 10.9892 55.3855 11.5496C55.79 12.0955 55.8641 12.7487 55.6025 13.463ZM31.2712 24.4529C31.4304 24.1008 31.6792 23.8115 32.013 23.5913C32.3545 23.366 32.7219 23.2484 33.1032 23.2484C33.492 23.2484 33.8809 23.2484 34.2699 23.2484C34.5937 23.2484 34.9174 23.2484 35.2413 23.2484C35.507 23.2484 35.7729 23.2484 36.0386 23.2484C36.2512 23.2484 36.4635 23.2484 36.6761 23.2484C36.8416 23.2484 37.0069 23.2484 37.1725 23.2484C37.2971 23.2484 37.4219 23.2484 37.5465 23.2484C37.635 23.2484 37.7237 23.2484 37.8122 23.2484C37.8719 23.2484 37.9314 23.2484 37.9911 23.2484C38.0279 23.2484 38.0648 23.2484 38.1016 23.2484C38.1204 23.2484 38.1393 23.2484 38.1581 23.2484C38.1643 23.2484 38.1706 23.2484 38.1816 23.2484C38.9139 23.2484 39.4945 23.5202 39.8778 24.0786C40.2591 24.6341 40.3092 25.2942 40.0411 26.012C39.8764 26.4157 39.714 26.8203 39.5547 27.2257C39.4218 27.5642 39.286 27.9019 39.1494 28.2397C39.0379 28.5162 38.9252 28.7926 38.8147 29.0693C38.7259 29.2914 38.6402 29.5141 38.5522 29.7362C38.4833 29.9089 38.4148 30.0816 38.3453 30.254C38.2948 30.3797 38.2431 30.5061 38.1943 30.639C38.1571 30.7347 38.1206 30.8306 38.0816 30.9259C38.0566 30.9864 38.0332 31.0473 38.0086 31.108C37.9923 31.1489 37.9761 31.1898 37.9621 31.2216C37.9551 31.2392 37.9479 31.2564 37.9402 31.2738L37.9386 31.2837L37.9104 31.3381C37.3605 32.3944 36.5167 33.0739 35.3452 33.0739C34.8403 33.0739 34.3352 33.0739 33.8303 33.0739C33.403 33.0739 32.9756 33.0739 32.5484 33.0739C32.1923 33.0739 31.8364 33.0739 31.4804 33.0739C31.1895 33.0739 30.8986 33.0739 30.6078 33.0739C30.3749 33.0739 30.142 33.0739 29.9091 33.0739C29.7264 33.0739 29.5438 33.0739 29.361 33.0739C29.2238 33.0739 29.0865 33.0739 28.9493 33.0739C28.8521 33.0739 28.755 33.0739 28.6578 33.0739C28.5919 33.0739 28.5259 33.0739 28.46 33.0739C28.4217 33.0739 28.3832 33.0739 28.3449 33.0739C28.3237 33.0739 28.3025 33.0739 28.2814 33.0739C28.2735 33.0739 28.2657 33.0739 28.2532 33.0739H27.8288L27.9938 32.6647C28.2119 32.1239 28.4279 31.5826 28.6416 31.0407C28.8253 30.5747 29.0136 30.1099 29.198 29.6443C29.3544 29.2492 29.5119 28.8546 29.6693 28.4599C29.8001 28.1319 29.932 27.804 30.0618 27.4759C30.168 27.2077 30.2747 26.9399 30.3815 26.6721C30.4672 26.4567 30.5529 26.2414 30.6383 26.026C30.7058 25.8562 30.7739 25.6863 30.8449 25.5172C30.8953 25.3969 30.9448 25.2761 30.9931 25.1475C31.0298 25.0559 31.0657 24.9642 31.1028 24.8728C31.1274 24.8117 31.1517 24.7504 31.1769 24.6893C31.1877 24.6629 31.2017 24.6326 31.2103 24.6058C31.2177 24.583 31.2242 24.5598 31.2323 24.537C31.243 24.5074 31.2559 24.4793 31.2712 24.4529ZM68.1104 9.70149C67.9234 9.6871 70.8974 4.34294 70.8541 2.48584C70.5315 1.90341 70.2291 0.854237 69.0451 0.895726C67.8611 0.93727 66.1531 4.74338 66.1531 4.74338L60.6386 17.7926H57.8853L59.3182 14.694H56.33C55.7981 16.0374 54.3224 19.2125 53.782 20.5527H63.422L68.1104 9.70149Z" fill="#E5087F"/>
</svg>
