<svg width="574" height="352" viewBox="0 0 574 352" fill="none" xmlns="http://www.w3.org/2000/svg">
<path fill-rule="evenodd" clip-rule="evenodd" d="M387.597 172.348L322.472 200.327C321.064 200.932 319.582 201.459 318.124 201.928C315.872 202.653 313.555 203.257 311.222 203.657C305.839 204.58 299.25 204.549 295.432 199.999C291.557 195.381 292.75 189.135 294.952 184.062C296.825 179.748 299.66 175.481 302.607 171.825L330.351 137.411H316.186C315.388 137.411 314.651 137.216 314.011 136.845L307.944 151.878C307.938 151.891 307.934 151.903 307.928 151.916C306.588 155.146 304.433 157.829 301.575 159.859C298.665 161.926 295.33 163.047 291.754 163.047H258.239C256.764 163.047 255.496 162.379 254.667 161.166C254.271 160.585 254.028 159.957 253.942 159.311C251.043 161.666 247.479 163.047 243.284 163.047C240.866 163.047 238.447 163.047 236.029 163.047C233.982 163.047 231.936 163.047 229.889 163.047C228.184 163.047 226.479 163.047 224.774 163.047C223.381 163.047 221.988 163.047 220.595 163.047C219.479 163.047 218.364 163.047 217.249 163.047C216.374 163.047 215.499 163.047 214.624 163.047C213.966 163.047 213.309 163.047 212.652 163.047C212.186 163.047 211.721 163.047 211.255 163.047C210.94 163.047 210.624 163.047 210.308 163.047C210.125 163.047 209.941 163.047 209.757 163.047C209.655 163.047 209.554 163.047 209.453 163.047C209.408 163.047 209.363 163.047 209.318 163.047H207.285C206.058 163.047 204.974 162.585 204.168 161.731C203.376 162.566 202.271 163.047 201.042 163.047H173.42C168.627 163.047 164.427 161.191 161.647 157.245C159.798 154.621 159.055 151.699 159.238 148.722L157.965 151.878C157.959 151.891 157.954 151.903 157.949 151.916C156.608 155.146 154.454 157.829 151.596 159.859C148.685 161.926 145.351 163.047 141.774 163.047H108.259C106.785 163.047 105.516 162.379 104.688 161.166C103.86 159.953 103.703 158.534 104.247 157.171L117.537 123.856L107.377 133.879L96.8212 160.337C96.1552 162.007 94.6145 163.047 92.8086 163.047H78.3308C76.8537 163.047 75.5836 162.377 74.7557 161.16C73.9279 159.944 73.7742 158.522 74.3231 157.158L85.264 129.981L75.2354 102.054C74.7481 100.697 74.9375 99.3144 75.772 98.1371C76.6064 96.9597 77.8524 96.317 79.3007 96.317H95.2253C97.0838 96.317 98.6658 97.4258 99.2908 99.1668L102.809 108.967L114.417 97.5566C115.256 96.7318 116.272 96.317 117.452 96.317H134.969C135.345 96.317 135.71 96.362 136.058 96.4486L141.709 84.7247C142.444 83.1991 143.901 82.2873 145.602 82.2873H165.421L178.091 49.9318C178.144 49.7971 178.194 49.6843 178.26 49.555L178.302 49.4733C181.534 43.1053 186.932 38.797 194.318 38.797H215.802C220.563 38.797 224.714 40.7014 227.415 44.6736C229.275 47.4099 229.962 50.4356 229.688 53.5089C232.93 49.678 237.266 47.1966 242.738 47.1966H247.57C248.344 47.1966 249.061 47.3808 249.688 47.7312C250.309 47.3897 251.024 47.1966 251.782 47.1966H265.508C266.772 47.1966 267.86 47.6766 268.708 48.6082C269.557 49.5401 269.929 50.6641 269.804 51.9149L268.751 62.4316L277.287 49.1748C278.104 47.9055 279.407 47.1966 280.922 47.1966H295.262C296.881 47.1966 298.271 48.0154 299.048 49.4283C299.053 49.4364 299.057 49.4448 299.062 49.4529C301.652 47.9982 304.631 47.1966 307.985 47.1966C308.067 47.1966 308.15 47.1966 308.233 47.1966C308.398 47.1966 308.564 47.1966 308.729 47.1966C308.999 47.1966 309.27 47.1966 309.54 47.1966C309.941 47.1966 310.343 47.1966 310.745 47.1966C311.304 47.1966 311.864 47.1966 312.424 47.1966C313.171 47.1966 313.918 47.1966 314.665 47.1966C315.623 47.1966 316.581 47.1966 317.538 47.1966C318.732 47.1966 319.927 47.1966 321.121 47.1966C322.578 47.1966 324.035 47.1966 325.492 47.1966C327.246 47.1966 329 47.1966 330.754 47.1966C335.578 47.1966 339.852 48.9814 342.745 52.8942C345.648 56.8201 346.026 61.4722 344.393 66.0058C344.367 66.0835 344.34 66.1605 344.311 66.2372H358.103C359.617 66.2372 360.919 66.9448 361.736 68.2124C362.554 69.4801 362.658 70.9518 362.026 72.3208L357.97 81.1108H361.556L386.857 21.1073C386.87 21.0767 386.881 21.0511 386.895 21.021C388.354 17.7624 390.111 14.4318 391.945 11.3755C393.397 8.9543 395.031 6.49308 396.922 4.39247C398.892 2.20419 401.443 0.116913 404.537 0.00831048C408.346 -0.125677 411.587 1.36258 413.95 4.32285C414.756 5.33299 415.404 6.43603 415.992 7.58251C416.368 8.31577 416.709 9.08254 417.104 9.80403C417.13 9.85035 417.156 9.89744 417.181 9.94507C417.293 10.1576 417.385 10.3688 417.457 10.5833C418.782 13.9903 419.889 17.5085 420.844 21.0343C421.292 22.6851 421.725 24.3688 422.082 26.0421C422.087 26.068 422.092 26.09 422.097 26.1159L431.987 76.9148L502.849 76.6531C503.838 76.5937 504.846 76.5803 505.834 76.5814C508.148 76.584 510.478 76.7044 512.775 76.9823C518.329 77.6538 525.212 79.4417 528.01 84.7549C529.71 87.9826 529.063 91.4552 527.262 94.4859C525.784 96.9733 523.583 99.1852 521.388 101.061C518.638 103.412 515.37 105.703 512.215 107.511L448.565 144.378L469.367 210.64C469.754 211.605 470.105 212.602 470.437 213.584C471.218 215.899 471.897 218.267 472.412 220.654C473.597 226.153 474.364 233.778 469.713 237.931C466.848 240.489 463.071 240.382 459.627 239.185C456.688 238.164 453.823 236.379 451.304 234.572C449.029 232.941 446.849 231.147 444.764 229.282C443.809 228.428 442.848 227.548 441.942 226.642L387.597 172.348ZM390.017 138.291C390.214 138.189 390.415 138.104 390.62 138.035C391.224 137.827 391.842 137.758 392.46 137.831C393.077 137.898 393.678 138.099 394.223 138.43C394.647 138.679 395.013 138.988 395.317 139.353L424.847 169.428L411.532 133.301C410.794 131.298 411.62 129.098 413.498 128.066L458.403 103.397L411.801 103.165C409.76 103.155 408.047 101.78 407.607 99.7975L398.891 60.5278L381.725 100.344C381.03 101.957 379.522 102.945 377.758 102.945H331.587C330.11 102.945 328.84 102.275 328.012 101.059C327.739 100.657 327.539 100.233 327.413 99.7954C324.51 101.824 321.026 102.945 317.021 102.945C316.992 102.945 316.961 102.945 316.931 102.945C316.848 102.945 316.766 102.945 316.683 102.945C316.521 102.945 316.36 102.945 316.198 102.945C315.928 102.945 315.658 102.945 315.387 102.945C314.993 102.945 314.599 102.945 314.205 102.945C313.649 102.945 313.093 102.945 312.537 102.945C311.793 102.945 311.05 102.945 310.306 102.945C309.36 102.945 308.414 102.945 307.467 102.945C306.281 102.945 305.094 102.945 303.907 102.945C302.454 102.945 301.001 102.945 299.547 102.945C297.809 102.945 296.07 102.945 294.332 102.945C289.475 102.945 285.115 101.193 282.212 97.2253C279.378 93.3538 278.954 88.8066 280.471 84.322C280.501 84.215 280.534 84.1087 280.569 84.0027C280.579 83.9706 280.589 83.9431 280.6 83.9111C280.682 83.6785 280.773 83.4459 280.876 83.2208C280.919 83.1177 280.959 83.0133 280.999 82.9097C281.134 82.5613 281.281 82.2183 281.431 81.8762C281.594 81.4724 281.76 81.0699 281.919 80.6648C282.074 80.2705 282.227 79.8753 282.381 79.4807L268.56 100.966C267.743 102.236 266.44 102.945 264.924 102.945H257.511C253.559 102.945 249.975 101.561 247.297 98.6387C244.612 95.7091 243.58 92.0249 243.88 88.1048C243.882 88.0739 243.884 88.0475 243.887 88.0166L245.908 67.2703L232.731 100.238C232.064 101.906 230.524 102.945 228.719 102.945H214.904C214.019 102.945 213.209 102.705 212.524 102.251C211.837 102.708 211.032 102.945 210.147 102.945H194.679C192.675 102.945 190.982 101.634 190.492 99.7012L187.173 86.5966C185.462 91.0959 183.708 95.5806 182.017 100.086C181.375 101.798 179.81 102.878 177.973 102.878H139.815C139.436 102.878 139.07 102.833 138.722 102.747C138.531 103.073 138.292 103.379 138.009 103.658L134.243 107.374C134.777 107.324 135.323 107.298 135.88 107.298H140.815C142.29 107.298 143.558 107.967 144.387 109.181C145.215 110.395 145.371 111.814 144.826 113.177L134.519 138.968C134.238 139.671 133.957 140.375 133.676 141.078L139.203 141.078L147.129 121.307L151.63 110.01C152.296 108.34 153.837 107.298 155.644 107.298H169.573C171.051 107.298 172.321 107.969 173.149 109.187C173.97 110.394 174.127 111.803 173.593 113.157C174.548 112.106 175.638 111.166 176.854 110.345C179.794 108.361 183.128 107.298 186.679 107.298H191.822C193.292 107.298 194.555 107.962 195.385 109.168C196.215 110.374 196.378 111.786 195.845 113.148L186.629 136.718C186.581 136.91 186.519 137.101 186.445 137.291L184.9 141.213H193.604C193.761 141.213 193.915 141.22 194.067 141.235H206.264C207.391 141.235 208.397 141.625 209.179 142.35C209.395 141.808 209.61 141.265 209.825 140.722C210.575 138.822 211.331 136.925 212.086 135.027C212.711 133.456 213.341 131.887 213.962 130.314C214.471 129.024 214.984 127.736 215.497 126.447C215.907 125.415 216.315 124.383 216.724 123.351C217.057 122.509 217.395 121.668 217.745 120.832C217.971 120.294 218.191 119.753 218.396 119.206C218.407 119.177 218.417 119.152 218.428 119.123C218.606 118.679 218.78 118.233 218.959 117.79C219.081 117.488 219.2 117.186 219.324 116.885C219.347 116.828 219.372 116.771 219.396 116.713C219.436 116.587 219.475 116.461 219.52 116.335C219.628 116.032 219.758 115.736 219.909 115.451C221.019 113.072 222.734 111.118 224.935 109.662C227.216 108.154 229.801 107.298 232.546 107.298C234.409 107.298 236.271 107.298 238.134 107.298C239.685 107.298 241.236 107.298 242.787 107.298C244.06 107.298 245.333 107.298 246.606 107.298C247.623 107.298 248.641 107.298 249.659 107.298C250.451 107.298 251.244 107.298 252.036 107.298C252.633 107.298 253.231 107.298 253.828 107.298C254.252 107.298 254.676 107.298 255.1 107.298C255.386 107.298 255.672 107.298 255.957 107.298C256.133 107.298 256.31 107.298 256.486 107.298C256.577 107.298 256.667 107.298 256.757 107.298C256.794 107.298 256.832 107.298 256.87 107.298C261.653 107.298 265.839 109.186 268.561 113.16C269.407 114.395 270.011 115.693 270.392 117.028C273.722 111.265 278.902 107.298 285.859 107.298H290.794C292.269 107.298 293.538 107.967 294.366 109.181C295.194 110.395 295.351 111.814 294.806 113.177L284.498 138.968C284.217 139.671 283.936 140.375 283.656 141.078L289.183 141.078L297.109 121.307L301.61 110.01C302.275 108.34 303.817 107.298 305.623 107.298H319.552C320.585 107.298 321.516 107.626 322.266 108.239C323.011 107.637 323.955 107.298 324.986 107.298H379.142C380.855 107.298 382.321 108.224 383.049 109.766C383.778 111.308 383.559 113.021 382.465 114.332L343.458 161.115L390.017 138.291ZM217.805 79.9431C217.375 80.3047 216.927 80.6489 216.46 80.9755C214.715 82.1973 212.821 83.0837 210.818 83.6L212.931 92.0166L217.805 79.9431ZM203.655 62.1571C203.861 61.6356 204.066 61.1143 204.273 60.593L197.258 60.5762C197.056 61.1038 196.853 61.6311 196.65 62.1582L203.655 62.1571ZM318.981 69.0425C318.902 69.0425 318.823 69.0425 318.744 69.0425C317.768 69.0425 316.792 69.0425 315.815 69.0425C314.602 69.0425 313.389 69.0425 312.176 69.0425C311.714 69.0425 311.252 69.0425 310.79 69.0425C310.616 69.49 310.435 69.9354 310.258 70.3821C309.986 71.0678 309.713 71.7531 309.443 72.4398C309.078 73.3673 308.699 74.2895 308.319 75.2106C307.873 76.2912 307.436 77.3754 307.004 78.4617C306.653 79.3459 306.297 80.2283 305.942 81.1108C306.022 81.1108 306.101 81.1108 306.181 81.1108C307.15 81.1108 308.119 81.1108 309.088 81.1108C310.301 81.1108 311.514 81.1108 312.727 81.1108C313.185 81.1108 313.644 81.1108 314.102 81.1108C314.304 80.6177 314.502 80.1237 314.709 79.6332C314.979 78.9966 315.23 78.3517 315.482 77.7082C315.838 76.8028 316.199 75.8997 316.562 74.9971C317.015 73.8689 317.475 72.7434 317.936 71.6184C318.287 70.7611 318.635 69.9019 318.981 69.0425ZM233.215 141.213C233.397 141.213 233.58 141.213 233.762 141.213C234.836 141.213 235.91 141.213 236.985 141.213C237.814 141.213 238.644 141.213 239.475 141.213C239.783 141.213 240.092 141.213 240.401 141.213C240.558 140.818 240.715 140.424 240.871 140.029C241.442 138.591 242.015 137.154 242.596 135.72C243.066 134.56 243.539 133.401 244.006 132.24C244.376 131.319 244.745 130.397 245.111 129.475C245.155 129.365 245.199 129.255 245.242 129.144C244.758 129.144 244.274 129.144 243.79 129.144C242.806 129.144 241.822 129.144 240.838 129.144C240.068 129.144 239.298 129.144 238.528 129.144C238.364 129.144 238.2 129.144 238.036 129.144C237.831 129.655 237.626 130.165 237.422 130.675C236.813 132.201 236.208 133.727 235.6 135.253C235.099 136.51 234.595 137.766 234.089 139.021C233.794 139.75 233.504 140.481 233.215 141.213Z" fill="#FEFEFE"/>
<path fill-rule="evenodd" clip-rule="evenodd" d="M413.353 11.9326C416.22 19.2443 417.859 26.9318 417.859 26.9318L428.428 81.2209L502.992 80.9454C502.992 80.9454 520.535 79.8133 524.186 86.7463C527.837 93.6794 510.051 103.796 510.051 103.796L443.419 142.391L465.297 212.082C465.297 212.082 472.467 229.702 466.829 234.736C461.192 239.77 445.002 223.613 445.002 223.613L388.583 167.247C393.377 163.556 393.653 146.838 391.99 142.11L435.834 186.762L415.586 131.824L474.997 99.1854L411.823 98.8719L400.213 46.5662C399.288 46.3516 413.541 20.6991 413.353 11.9326Z" fill="#0B4699"/>
<path fill-rule="evenodd" clip-rule="evenodd" d="M388.583 167.247C393.487 163.235 393.57 146.826 391.99 142.11L327.224 173.86L379.142 111.592H324.986L316.186 133.118H332.394L335.669 125.108H345.802L305.975 174.511C301.6 179.937 293.933 191.513 298.746 197.248C303.558 202.983 317.909 197.611 320.76 196.386L388.583 167.247ZM243.327 145.506C243.85 144.207 244.371 142.906 244.887 141.606C245.454 140.177 246.023 138.75 246.6 137.325C247.072 136.161 247.547 134.998 248.015 133.833C248.388 132.907 248.758 131.979 249.126 131.052C249.418 130.317 249.707 129.582 249.993 128.882C250.213 128.312 250.44 127.742 250.681 127.177C250.843 126.798 251.002 126.418 251.136 126.088C251.236 125.814 251.346 125.545 251.45 125.273C251.505 125.132 251.557 124.991 251.613 124.851C250.234 124.851 248.853 124.851 247.473 124.851C246.246 124.851 245.018 124.851 243.79 124.851C242.806 124.851 241.822 124.851 240.838 124.851C240.069 124.851 239.298 124.851 238.528 124.851C237.951 124.851 237.372 124.851 236.794 124.851C236.381 124.851 235.967 124.851 235.555 124.851C235.409 124.851 235.262 124.851 235.116 124.851C234.546 126.264 233.975 127.677 233.41 129.091C232.8 130.618 232.195 132.145 231.587 133.671C231.089 134.923 230.587 136.173 230.083 137.421C229.683 138.414 229.29 139.408 228.897 140.401C228.586 141.184 228.277 141.967 227.96 142.747C227.724 143.33 227.495 143.915 227.256 144.498C227.12 144.833 226.986 145.171 226.848 145.506C227.812 145.506 228.776 145.506 229.741 145.506C231.081 145.506 232.422 145.506 233.762 145.506C234.836 145.506 235.911 145.506 236.985 145.506C237.815 145.506 238.644 145.506 239.475 145.506C240.101 145.506 240.729 145.506 241.356 145.506C241.806 145.506 242.257 145.506 242.707 145.506C242.914 145.506 243.12 145.506 243.327 145.506ZM163.671 98.5848H139.815L145.602 86.5803H168.372L182.114 51.4896L182.155 51.408C184.748 46.3568 188.729 43.0903 194.318 43.0903H215.802C219.287 43.0903 222.024 44.4106 223.839 47.0783C225.656 49.7509 225.906 52.8936 224.65 56.333C224.334 57.1404 224.028 57.9511 223.72 58.7603C222.605 61.6773 219.998 68.4293 218.869 71.382C217.868 73.8403 216.22 75.8928 213.975 77.4648C211.691 79.0629 209.206 79.8357 206.617 79.8357H205.423L210.147 98.6523H194.679L189.912 79.8357H185.11C185.042 79.9975 184.979 80.161 184.918 80.3256C183.232 84.8932 179.689 94.0122 177.973 98.5848H168.121H163.671ZM230.55 59.8965L230.6 59.8044C233.27 54.8751 237.226 51.4896 242.738 51.4896H247.57L228.719 98.6523H214.904L230.55 59.8965ZM262.671 79.8365L280.922 51.4896H295.262L264.924 98.6523H257.511C254.652 98.6523 252.271 97.6921 250.488 95.7469C248.694 93.789 247.964 91.311 248.184 88.4305L251.782 51.4896H265.508L262.671 79.8365ZM103.697 131.463L92.8086 158.754H78.3308L89.8793 130.068L79.3008 100.61H95.2253L101.022 116.759L117.452 100.61H134.969L103.697 131.463ZM127.325 145.372L142.13 145.371L151.141 122.892L155.644 111.592H169.573L153.958 150.278C152.941 152.729 151.321 154.779 149.087 156.365C146.823 157.973 144.354 158.754 141.774 158.754H108.26L123.785 119.834L123.837 119.738C126.486 114.845 130.437 111.592 135.88 111.592H140.815L130.507 137.382C129.444 140.045 128.384 142.709 127.325 145.372ZM182.385 135.725H182.425L178.572 145.506H193.604L193.6 145.528H206.264L205.498 147.478C204.595 149.776 203.7 152.077 202.804 154.376C202.39 155.437 201.964 156.494 201.534 157.55L201.042 158.754H173.42C169.882 158.754 167.07 157.461 165.183 154.782C163.312 152.127 163.031 148.956 164.315 145.511L174.277 120.112C175.273 117.572 176.943 115.475 179.279 113.897C181.592 112.336 184.091 111.592 186.679 111.592H191.822L182.385 135.725ZM277.304 145.372L292.109 145.371L301.12 122.892L305.623 111.592H319.552L303.938 150.278C302.921 152.729 301.3 154.779 299.066 156.365C296.803 157.973 294.333 158.754 291.754 158.754H258.239L273.765 119.834L273.817 119.738C276.466 114.845 280.417 111.592 285.859 111.592H290.794L280.486 137.382C279.423 140.045 278.363 142.709 277.304 145.372ZM206.607 66.4499C207.425 64.349 209.78 58.4125 210.617 56.3147L194.273 56.2757C193.484 58.391 191.178 64.3388 190.375 66.4522L206.607 66.4499ZM317.037 85.4038C317.057 85.3499 317.073 85.3007 317.084 85.2703C317.156 85.0727 317.235 84.8757 317.322 84.6813C317.417 84.4693 317.499 84.2468 317.581 84.0309C317.73 83.6444 317.885 83.2592 318.042 82.8742C318.257 82.3485 318.467 81.8223 318.689 81.2981C318.974 80.6255 319.238 79.9467 319.504 79.2694C319.855 78.3747 320.212 77.4823 320.571 76.5899C321.02 75.4712 321.477 74.3548 321.934 73.2384C322.485 71.8918 323.027 70.543 323.57 69.194C324.165 67.7115 324.768 66.2308 325.368 64.7491C325.33 64.7491 325.293 64.7491 325.256 64.7491C325.091 64.7491 324.925 64.7491 324.76 64.7491C324.486 64.7491 324.212 64.7491 323.938 64.7491C323.532 64.7491 323.127 64.7491 322.721 64.7491C322.154 64.7491 321.587 64.7491 321.02 64.7491C320.261 64.7491 319.503 64.7491 318.744 64.7491C317.768 64.7491 316.792 64.7491 315.815 64.7491C314.603 64.7491 313.389 64.7491 312.176 64.7491C310.757 64.7491 309.338 64.7491 307.893 64.7507C307.855 64.8428 307.81 64.9399 307.749 65.0715C307.701 65.1691 307.665 65.2581 307.638 65.3272C307.54 65.6179 307.42 65.8932 307.298 66.1785C307.146 66.5396 307 66.9034 306.866 67.2297C306.664 67.7568 306.451 68.2809 306.243 68.8056C305.969 69.4957 305.694 70.1847 305.423 70.8748C305.067 71.779 304.697 72.6795 304.326 73.58C303.872 74.6788 303.428 75.7816 302.989 76.8843C302.451 78.2397 301.901 79.5918 301.359 80.9456C300.763 82.4328 300.159 83.9181 299.556 85.4038C299.594 85.4038 299.631 85.4038 299.67 85.4038C299.835 85.4038 300 85.4038 300.165 85.4038C300.436 85.4038 300.706 85.4038 300.976 85.4038C301.382 85.4038 301.788 85.4038 302.193 85.4038C302.764 85.4038 303.335 85.4038 303.906 85.4038C304.664 85.4038 305.423 85.4038 306.181 85.4038C307.15 85.4038 308.119 85.4038 309.088 85.4038C310.301 85.4038 311.514 85.4038 312.727 85.4038C314.164 85.4038 315.601 85.4038 317.037 85.4038ZM340.306 64.6214C340.266 64.7523 340.212 64.8779 340.15 65.004C340.12 65.0684 340.094 65.1359 340.043 65.2487C339.98 65.3876 339.923 65.5415 339.868 65.6828C339.746 65.9927 339.628 66.3023 339.503 66.6103C339.327 67.0455 339.148 67.4781 338.964 67.9449C338.709 68.5604 338.463 69.178 338.216 69.7959C337.883 70.6301 337.549 71.4655 337.214 72.2992C336.787 73.3591 336.362 74.4192 335.936 75.479C335.403 76.8066 334.865 78.1334 334.329 79.4599C333.676 81.0798 333.029 82.7018 332.386 84.324C331.612 86.2747 330.816 88.2217 330.02 90.1676L329.99 90.2414L329.953 90.3137C327.186 95.6891 322.824 98.6523 317.022 98.6523C316.991 98.6523 316.962 98.6523 316.931 98.6523C316.848 98.6523 316.766 98.6523 316.683 98.6523C316.522 98.6523 316.36 98.6523 316.198 98.6523C315.928 98.6523 315.658 98.6523 315.387 98.6523C314.993 98.6523 314.599 98.6523 314.205 98.6523C313.649 98.6523 313.093 98.6523 312.537 98.6523C311.794 98.6523 311.05 98.6523 310.306 98.6523C309.36 98.6523 308.413 98.6523 307.467 98.6523C306.281 98.6523 305.094 98.6523 303.907 98.6523C302.454 98.6523 301 98.6523 299.547 98.6523C297.809 98.6523 296.07 98.6523 294.332 98.6523C290.691 98.6523 287.699 97.4278 285.702 94.6989C283.789 92.0859 283.414 88.9903 284.602 85.576C284.62 85.5022 284.644 85.4221 284.675 85.3292C284.725 85.1863 284.783 85.0434 284.827 84.9521C284.896 84.7893 284.961 84.6234 285.025 84.4591C285.151 84.1351 285.285 83.826 285.414 83.534C285.591 83.0933 285.767 82.6678 285.941 82.2263C286.187 81.5982 286.427 80.9702 286.678 80.3437C287.012 79.5094 287.355 78.6772 287.691 77.8427C288.119 76.7805 288.551 75.7188 288.982 74.6566C289.515 73.3384 290.044 72.0197 290.57 70.6992C291.219 69.0718 291.877 67.4464 292.532 65.8202C293.315 63.8813 294.091 61.9409 294.865 59.9996L294.909 59.8908L294.967 59.7861C297.861 54.5768 302.151 51.4896 307.985 51.4896C308.068 51.4896 308.15 51.4896 308.233 51.4896C308.398 51.4896 308.564 51.4896 308.729 51.4896C308.999 51.4896 309.269 51.4896 309.54 51.4896C309.941 51.4896 310.343 51.4896 310.745 51.4896C311.304 51.4896 311.864 51.4896 312.424 51.4896C313.171 51.4896 313.918 51.4896 314.665 51.4896C315.623 51.4896 316.581 51.4896 317.538 51.4896C318.733 51.4896 319.927 51.4896 321.121 51.4896C322.578 51.4896 324.035 51.4896 325.492 51.4896C327.246 51.4896 329 51.4896 330.754 51.4896C334.364 51.4896 337.278 52.7473 339.267 55.4375C341.204 58.0576 341.56 61.193 340.306 64.6214ZM223.772 117.373C224.535 115.683 225.727 114.294 227.325 113.238C228.961 112.156 230.72 111.592 232.546 111.592C234.409 111.592 236.271 111.592 238.134 111.592C239.685 111.592 241.236 111.592 242.787 111.592C244.06 111.592 245.333 111.592 246.606 111.592C247.624 111.592 248.641 111.592 249.659 111.592C250.451 111.592 251.243 111.592 252.036 111.592C252.633 111.592 253.231 111.592 253.828 111.592C254.252 111.592 254.676 111.592 255.1 111.592C255.386 111.592 255.671 111.592 255.957 111.592C256.133 111.592 256.31 111.592 256.486 111.592C256.577 111.592 256.667 111.592 256.757 111.592C256.787 111.592 256.817 111.592 256.87 111.592C260.377 111.592 263.157 112.896 264.993 115.577C266.82 118.243 267.059 121.411 265.775 124.857C264.987 126.795 264.209 128.737 263.446 130.683C262.81 132.307 262.159 133.929 261.505 135.55C260.971 136.877 260.431 138.204 259.902 139.532C259.476 140.598 259.066 141.667 258.644 142.733C258.315 143.562 257.986 144.391 257.654 145.218C257.412 145.822 257.164 146.428 256.93 147.067C256.752 147.526 256.577 147.986 256.391 148.443C256.271 148.734 256.159 149.026 256.041 149.318C255.963 149.514 255.885 149.71 255.818 149.863C255.785 149.947 255.75 150.03 255.713 150.113L255.706 150.161L255.571 150.422C252.937 155.492 248.895 158.754 243.284 158.754C240.866 158.754 238.447 158.754 236.029 158.754C233.983 158.754 231.936 158.754 229.889 158.754C228.184 158.754 226.479 158.754 224.774 158.754C223.381 158.754 221.988 158.754 220.595 158.754C219.479 158.754 218.364 158.754 217.249 158.754C216.374 158.754 215.499 158.754 214.624 158.754C213.967 158.754 213.309 158.754 212.652 158.754C212.186 158.754 211.721 158.754 211.255 158.754C210.94 158.754 210.624 158.754 210.308 158.754C210.125 158.754 209.94 158.754 209.757 158.754C209.655 158.754 209.554 158.754 209.453 158.754C209.415 158.754 209.378 158.754 209.318 158.754H207.285L208.075 156.79C209.12 154.194 210.154 151.595 211.178 148.995C212.058 146.758 212.96 144.527 213.843 142.292C214.592 140.396 215.346 138.501 216.1 136.607C216.727 135.032 217.358 133.459 217.98 131.883C218.489 130.596 219 129.311 219.511 128.026C219.922 126.992 220.332 125.958 220.741 124.924C221.064 124.109 221.391 123.293 221.731 122.482C221.972 121.905 222.209 121.324 222.44 120.707C222.616 120.267 222.788 119.827 222.966 119.389C223.083 119.096 223.2 118.801 223.32 118.508C223.372 118.381 223.439 118.236 223.481 118.107C223.516 117.997 223.547 117.886 223.586 117.777C223.637 117.635 223.699 117.5 223.772 117.373ZM400.213 46.5664C399.317 46.4973 413.561 20.8453 413.353 11.9313C411.808 9.13559 410.36 4.09955 404.689 4.2987C399.018 4.49811 390.838 22.7674 390.838 22.7674L364.427 85.4038H351.24L358.103 70.5302H343.791C341.243 76.9788 334.175 92.2193 331.587 98.6523H377.758L400.213 46.5664Z" fill="#E5087F"/>
<g opacity="0.6" filter="url(#filter0_f_48_753)">
<ellipse cx="287" cy="274.5" rx="227.386" ry="10.5" transform="rotate(3.45093 287 274.5)" fill="#303030"/>
</g>
<defs>
<filter id="filter0_f_48_753" x="0.0258789" y="197.26" width="573.948" height="154.48" filterUnits="userSpaceOnUse" color-interpolation-filters="sRGB">
<feFlood flood-opacity="0" result="BackgroundImageFix"/>
<feBlend mode="normal" in="SourceGraphic" in2="BackgroundImageFix" result="shape"/>
<feGaussianBlur stdDeviation="30" result="effect1_foregroundBlur_48_753"/>
</filter>
</defs>
</svg>
