<svg width="575" height="352" viewBox="0 0 575 352" fill="none" xmlns="http://www.w3.org/2000/svg">
<g opacity="0.6" filter="url(#filter0_f_676_1550)">
<ellipse cx="287.72" cy="274.507" rx="227.5" ry="10.5" transform="rotate(3.45093 287.72 274.507)" fill="#303030"/>
</g>
<path fill-rule="evenodd" clip-rule="evenodd" d="M388.815 172.549L323.79 200.561C322.384 201.167 320.905 201.694 319.449 202.164C317.2 202.89 314.887 203.495 312.558 203.896C307.183 204.82 300.604 204.789 296.791 200.233C292.922 195.61 294.113 189.356 296.312 184.277C298.182 179.959 301.013 175.686 303.956 172.026L331.657 137.572H317.513C316.717 137.572 315.981 137.377 315.343 137.005L309.284 152.055C309.279 152.069 309.274 152.081 309.269 152.094C307.931 155.328 305.779 158.013 302.925 160.046C300.019 162.115 296.69 163.238 293.119 163.238H259.656C258.183 163.238 256.917 162.569 256.09 161.355C255.694 160.773 255.451 160.144 255.366 159.497C252.471 161.855 248.913 163.238 244.724 163.238C242.31 163.238 239.895 163.238 237.48 163.238C235.437 163.238 233.393 163.238 231.35 163.238C229.648 163.238 227.945 163.238 226.243 163.238C224.852 163.238 223.461 163.238 222.07 163.238C220.956 163.238 219.842 163.238 218.729 163.238C217.855 163.238 216.982 163.238 216.108 163.238C215.451 163.238 214.795 163.238 214.139 163.238C213.674 163.238 213.209 163.238 212.745 163.238C212.429 163.238 212.114 163.238 211.799 163.238C211.616 163.238 211.432 163.238 211.248 163.238C211.147 163.238 211.046 163.238 210.945 163.238C210.9 163.238 210.855 163.238 210.81 163.238H208.78C207.556 163.238 206.473 162.775 205.668 161.921C204.878 162.757 203.774 163.238 202.547 163.238H174.968C170.182 163.238 165.988 161.379 163.213 157.429C161.367 154.802 160.625 151.876 160.808 148.896L159.536 152.055C159.53 152.069 159.526 152.081 159.52 152.094C158.182 155.328 156.03 158.013 153.177 160.046C150.271 162.115 146.942 163.238 143.37 163.238H109.907C108.435 163.238 107.169 162.569 106.341 161.355C105.514 160.14 105.358 158.72 105.901 157.355L119.17 124.001L109.026 134.036L98.4866 160.525C97.8217 162.196 96.2833 163.238 94.4802 163.238H80.0246C78.5499 163.238 77.2817 162.567 76.4551 161.349C75.6285 160.131 75.4751 158.708 76.0232 157.342L86.9472 130.133L76.9341 102.174C76.4475 100.815 76.6367 99.4307 77.4698 98.2519C78.3029 97.0732 79.547 96.4297 80.9931 96.4297H96.8931C98.7489 96.4297 100.328 97.5398 100.952 99.2829L104.465 109.094L116.056 97.6708C116.893 96.845 117.907 96.4297 119.085 96.4297H136.576C136.951 96.4297 137.315 96.4748 137.663 96.5615L143.305 84.8239C144.039 83.2965 145.494 82.3837 147.192 82.3837H166.981L179.631 49.9903C179.684 49.8553 179.735 49.7424 179.8 49.613L179.842 49.5312C183.069 43.1557 188.459 38.8424 195.833 38.8424H217.284C222.038 38.8424 226.182 40.749 228.879 44.7259C230.737 47.4654 231.422 50.4946 231.149 53.5716C234.386 49.7361 238.715 47.2518 244.178 47.2518H249.004C249.777 47.2518 250.493 47.4363 251.118 47.7871C251.738 47.4452 252.452 47.2518 253.209 47.2518H266.914C268.176 47.2518 269.262 47.7324 270.109 48.6651C270.956 49.5981 271.328 50.7233 271.203 51.9757L270.152 62.5047L278.674 49.2323C279.49 47.9616 280.791 47.2518 282.304 47.2518H296.622C298.239 47.2518 299.626 48.0716 300.403 49.4862C300.407 49.4943 300.411 49.5027 300.416 49.5108C303.002 48.0544 305.977 47.2518 309.325 47.2518C309.408 47.2518 309.49 47.2518 309.573 47.2518C309.738 47.2518 309.903 47.2518 310.068 47.2518C310.338 47.2518 310.608 47.2518 310.878 47.2518C311.279 47.2518 311.68 47.2518 312.081 47.2518C312.64 47.2518 313.198 47.2518 313.757 47.2518C314.503 47.2518 315.25 47.2518 315.995 47.2518C316.952 47.2518 317.908 47.2518 318.864 47.2518C320.056 47.2518 321.249 47.2518 322.441 47.2518C323.896 47.2518 325.351 47.2518 326.806 47.2518C328.557 47.2518 330.308 47.2518 332.059 47.2518C336.876 47.2518 341.143 49.0387 344.032 52.9561C346.931 56.8866 347.308 61.5442 345.678 66.0831C345.652 66.1609 345.625 66.2379 345.596 66.3147H359.366C360.878 66.3147 362.178 67.0231 362.994 68.2923C363.81 69.5614 363.914 71.0349 363.283 72.4054L359.234 81.2057H362.814L388.076 21.132C388.089 21.1014 388.1 21.0757 388.114 21.0456C389.571 17.7832 391.325 14.4487 393.156 11.3888C394.606 8.96478 396.237 6.50068 398.126 4.39761C400.093 2.20677 402.64 0.11705 405.729 0.00832021C409.532 -0.125824 412.768 1.36417 415.127 4.32791C415.932 5.33923 416.58 6.44356 417.166 7.59138C417.541 8.32551 417.883 9.09317 418.276 9.8155C418.303 9.86188 418.328 9.90903 418.353 9.95671C418.465 10.1695 418.557 10.3809 418.629 10.5957C419.952 14.0067 421.057 17.529 422.011 21.059C422.458 22.7116 422.891 24.3974 423.247 26.0726C423.252 26.0985 423.257 26.1205 423.262 26.1465L433.136 77.0048L503.89 76.7428C504.877 76.6833 505.884 76.67 506.87 76.671C509.18 76.6736 511.507 76.7942 513.801 77.0724C519.345 77.7447 526.218 79.5347 529.012 84.8541C530.709 88.0856 530.063 91.5623 528.265 94.5965C526.789 97.0868 524.592 99.3012 522.4 101.18C519.655 103.533 516.392 105.826 513.242 107.637L449.689 144.547L470.459 210.887C470.845 211.853 471.196 212.85 471.527 213.834C472.307 216.152 472.985 218.522 473.499 220.912C474.683 226.417 475.448 234.052 470.805 238.209C467.944 240.771 464.173 240.664 460.734 239.465C457.799 238.443 454.939 236.655 452.424 234.847C450.153 233.214 447.975 231.418 445.893 229.551C444.94 228.696 443.981 227.814 443.076 226.908L388.815 172.549ZM391.232 138.453C391.428 138.351 391.629 138.266 391.833 138.196C392.437 137.988 393.053 137.92 393.67 137.993C394.286 138.059 394.887 138.261 395.43 138.592C395.854 138.841 396.22 139.15 396.523 139.516L426.008 169.626L412.713 133.457C411.976 131.452 412.801 129.249 414.676 128.216L459.512 103.518L412.982 103.286C410.944 103.276 409.234 101.899 408.794 99.9143L400.091 60.5986L382.952 100.461C382.258 102.076 380.753 103.066 378.991 103.066H332.891C331.417 103.066 330.148 102.395 329.322 101.177C329.049 100.775 328.849 100.35 328.724 99.9122C325.825 101.943 322.347 103.066 318.348 103.066C318.318 103.066 318.288 103.066 318.258 103.066C318.175 103.066 318.093 103.066 318.01 103.066C317.849 103.066 317.688 103.066 317.526 103.066C317.256 103.066 316.986 103.066 316.716 103.066C316.323 103.066 315.929 103.066 315.536 103.066C314.981 103.066 314.425 103.066 313.87 103.066C313.128 103.066 312.385 103.066 311.643 103.066C310.698 103.066 309.753 103.066 308.809 103.066C307.624 103.066 306.439 103.066 305.254 103.066C303.803 103.066 302.352 103.066 300.901 103.066C299.165 103.066 297.429 103.066 295.693 103.066C290.844 103.066 286.491 101.311 283.592 97.3391C280.762 93.4631 280.339 88.9106 281.854 84.4207C281.884 84.3136 281.917 84.2072 281.951 84.1011C281.962 84.0688 281.971 84.0413 281.982 84.0094C282.064 83.7764 282.156 83.5435 282.258 83.3182C282.301 83.215 282.341 83.1105 282.381 83.0067C282.516 82.658 282.663 82.3145 282.813 81.9721C282.975 81.5678 283.141 81.1648 283.3 80.7593C283.455 80.3644 283.607 79.9688 283.761 79.5737L269.961 101.084C269.145 102.356 267.844 103.066 266.33 103.066H258.929C254.983 103.066 251.405 101.68 248.731 98.7542C246.05 95.8211 245.019 92.1327 245.319 88.2079C245.321 88.177 245.323 88.1505 245.326 88.1196L247.344 67.3491L234.187 100.356C233.521 102.026 231.984 103.066 230.181 103.066H216.387C215.504 103.066 214.695 102.825 214.011 102.371C213.325 102.828 212.521 103.066 211.638 103.066H196.194C194.192 103.066 192.503 101.753 192.014 99.8179L188.699 86.698C186.991 91.2026 185.24 95.6924 183.551 100.203C182.91 101.917 181.347 102.998 179.513 102.998H141.414C141.036 102.998 140.671 102.954 140.323 102.867C140.132 103.193 139.894 103.5 139.611 103.779L135.851 107.499C136.384 107.449 136.929 107.424 137.485 107.424H142.412C143.885 107.424 145.152 108.093 145.979 109.309C146.806 110.524 146.962 111.945 146.418 113.31L136.126 139.131C135.845 139.835 135.565 140.539 135.285 141.243L140.804 141.243L148.717 121.449L153.211 110.139C153.876 108.467 155.415 107.424 157.219 107.424H171.126C172.602 107.424 173.871 108.096 174.697 109.315C175.517 110.523 175.674 111.934 175.14 113.289C176.094 112.237 177.182 111.296 178.396 110.474C181.331 108.488 184.66 107.424 188.206 107.424H193.341C194.809 107.424 196.07 108.088 196.899 109.295C197.727 110.503 197.89 111.917 197.358 113.28L188.156 136.878C188.108 137.07 188.047 137.261 187.972 137.451L186.43 141.378H195.12C195.277 141.378 195.431 141.385 195.582 141.4H207.761C208.886 141.4 209.89 141.791 210.671 142.517C210.887 141.974 211.102 141.43 211.316 140.887C212.065 138.985 212.82 137.085 213.574 135.185C214.198 133.612 214.827 132.041 215.447 130.466C215.956 129.175 216.468 127.885 216.979 126.595C217.389 125.562 217.797 124.529 218.205 123.496C218.538 122.652 218.875 121.81 219.224 120.974C219.45 120.434 219.67 119.893 219.874 119.346C219.885 119.316 219.895 119.291 219.907 119.262C220.084 118.818 220.258 118.372 220.437 117.928C220.558 117.626 220.677 117.323 220.8 117.022C220.824 116.964 220.849 116.907 220.873 116.85C220.913 116.723 220.951 116.597 220.996 116.471C221.105 116.167 221.234 115.872 221.385 115.586C222.493 113.205 224.205 111.248 226.403 109.791C228.681 108.281 231.262 107.424 234.003 107.424C235.863 107.424 237.722 107.424 239.582 107.424C241.131 107.424 242.679 107.424 244.228 107.424C245.499 107.424 246.77 107.424 248.041 107.424C249.057 107.424 250.073 107.424 251.089 107.424C251.88 107.424 252.671 107.424 253.463 107.424C254.059 107.424 254.655 107.424 255.251 107.424C255.675 107.424 256.099 107.424 256.522 107.424C256.807 107.424 257.092 107.424 257.378 107.424C257.554 107.424 257.73 107.424 257.906 107.424C257.996 107.424 258.086 107.424 258.176 107.424C258.214 107.424 258.251 107.424 258.289 107.424C263.065 107.424 267.245 109.314 269.962 113.292C270.807 114.529 271.41 115.828 271.791 117.165C275.115 111.395 280.287 107.424 287.234 107.424H292.161C293.634 107.424 294.9 108.093 295.727 109.309C296.555 110.524 296.711 111.945 296.166 113.31L285.875 139.131C285.594 139.835 285.314 140.539 285.034 141.243L290.552 141.243L298.466 121.449L302.96 110.139C303.625 108.467 305.163 107.424 306.967 107.424H320.875C321.906 107.424 322.836 107.752 323.585 108.366C324.328 107.763 325.271 107.424 326.3 107.424H380.373C382.083 107.424 383.547 108.351 384.274 109.894C385.001 111.438 384.783 113.153 383.691 114.466L344.744 161.303L391.232 138.453ZM219.284 80.0367C218.855 80.3987 218.407 80.7433 217.941 81.0703C216.199 82.2935 214.308 83.1809 212.308 83.6979L214.417 92.1243L219.284 80.0367ZM205.156 62.2299C205.361 61.7077 205.567 61.1858 205.773 60.6639L198.769 60.6471C198.567 61.1753 198.365 61.7032 198.162 62.2309L205.156 62.2299ZM320.305 69.1233C320.226 69.1233 320.147 69.1233 320.068 69.1233C319.093 69.1233 318.118 69.1233 317.143 69.1233C315.932 69.1233 314.721 69.1233 313.51 69.1233C313.049 69.1233 312.588 69.1233 312.126 69.1233C311.952 69.5713 311.772 70.0173 311.595 70.4645C311.323 71.1509 311.051 71.8371 310.781 72.5246C310.416 73.4531 310.039 74.3764 309.659 75.2987C309.213 76.3805 308.777 77.4659 308.346 78.5535C307.996 79.4388 307.64 80.3222 307.285 81.2057C307.365 81.2057 307.445 81.2057 307.524 81.2057C308.492 81.2057 309.459 81.2057 310.427 81.2057C311.638 81.2057 312.849 81.2057 314.06 81.2057C314.518 81.2057 314.976 81.2057 315.433 81.2057C315.634 80.7121 315.832 80.2174 316.039 79.7265C316.308 79.089 316.559 78.4435 316.811 77.7992C317.166 76.8927 317.527 75.9885 317.889 75.0849C318.342 73.9554 318.801 72.8285 319.261 71.7022C319.612 70.8439 319.959 69.9837 320.305 69.1233ZM234.671 141.378C234.853 141.378 235.035 141.378 235.217 141.378C236.289 141.378 237.362 141.378 238.434 141.378C239.263 141.378 240.092 141.378 240.921 141.378C241.229 141.378 241.537 141.378 241.845 141.378C242.002 140.983 242.159 140.588 242.315 140.193C242.885 138.753 243.457 137.315 244.037 135.879C244.506 134.717 244.979 133.557 245.445 132.395C245.815 131.473 246.182 130.55 246.548 129.627C246.592 129.516 246.636 129.406 246.679 129.296C246.196 129.296 245.712 129.296 245.229 129.296C244.247 129.296 243.264 129.296 242.282 129.296C241.513 129.296 240.744 129.296 239.976 129.296C239.812 129.296 239.648 129.296 239.484 129.296C239.279 129.806 239.075 130.317 238.871 130.828C238.263 132.355 237.659 133.884 237.052 135.411C236.552 136.669 236.049 137.927 235.543 139.183C235.249 139.914 234.96 140.646 234.671 141.378ZM486.91 3.18534C499.526 3.18534 509.207 13.8144 509.207 26.2093C509.207 38.6043 499.526 49.2334 486.91 49.2334C474.293 49.2334 464.612 38.6043 464.612 26.2093C464.612 13.8144 474.293 3.18534 486.91 3.18534Z" fill="#FEFEFE"/>
<path fill-rule="evenodd" clip-rule="evenodd" d="M414.532 11.9469C417.394 19.2671 419.03 26.9636 419.03 26.9636L429.583 81.3163L504.033 81.0404C504.033 81.0404 521.548 79.907 525.194 86.8481C528.839 93.7893 511.08 103.918 511.08 103.918L444.551 142.558L466.395 212.33C466.395 212.33 473.554 229.972 467.925 235.011C462.297 240.051 446.131 223.875 446.131 223.875L389.799 167.443C394.586 163.747 394.861 147.011 393.202 142.276L436.977 186.981L416.76 131.978L476.08 99.3018L413.003 98.9879L401.411 46.621C400.488 46.4061 414.719 20.7236 414.532 11.9469Z" fill="#1A509D"/>
<path fill-rule="evenodd" clip-rule="evenodd" d="M389.799 167.443C394.695 163.426 394.779 146.998 393.202 142.276L328.535 174.063L380.373 111.722H326.3L317.513 133.274H333.697L336.967 125.255H347.084L307.319 174.715C302.95 180.148 295.295 191.737 300.1 197.479C304.906 203.22 319.234 197.842 322.081 196.616L389.799 167.443ZM244.767 145.676C245.29 144.376 245.809 143.074 246.324 141.771C246.891 140.341 247.459 138.912 248.035 137.485C248.506 136.32 248.98 135.156 249.447 133.99C249.82 133.063 250.19 132.134 250.557 131.205C250.849 130.469 251.137 129.733 251.423 129.033C251.642 128.462 251.868 127.891 252.11 127.326C252.271 126.946 252.43 126.567 252.563 126.236C252.663 125.962 252.773 125.692 252.878 125.419C252.933 125.279 252.984 125.137 253.04 124.997C251.663 124.997 250.284 124.997 248.907 124.997C247.681 124.997 246.455 124.997 245.229 124.997C244.247 124.997 243.264 124.997 242.282 124.997C241.514 124.997 240.744 124.997 239.976 124.997C239.399 124.997 238.821 124.997 238.244 124.997C237.831 124.997 237.418 124.997 237.007 124.997C236.861 124.997 236.715 124.997 236.569 124.997C235.999 126.411 235.429 127.826 234.865 129.242C234.256 130.771 233.652 132.299 233.045 133.828C232.547 135.081 232.047 136.332 231.543 137.582C231.144 138.576 230.751 139.571 230.359 140.566C230.049 141.349 229.741 142.133 229.424 142.914C229.188 143.498 228.959 144.084 228.721 144.667C228.584 145.003 228.451 145.341 228.313 145.676C229.276 145.676 230.239 145.676 231.202 145.676C232.54 145.676 233.878 145.676 235.217 145.676C236.289 145.676 237.362 145.676 238.434 145.676C239.263 145.676 240.091 145.676 240.92 145.676C241.546 145.676 242.173 145.676 242.799 145.676C243.248 145.676 243.698 145.676 244.148 145.676C244.354 145.676 244.56 145.676 244.767 145.676ZM141.414 98.7002L147.192 86.6818H169.927L183.648 51.55L183.689 51.4682C186.278 46.4111 190.253 43.1408 195.833 43.1408H217.284C220.764 43.1408 223.497 44.4626 225.308 47.1334C227.123 49.8092 227.372 52.9556 226.118 56.399C225.803 57.2073 225.497 58.019 225.19 58.8291C224.077 61.7496 221.474 68.5095 220.347 71.4656C219.347 73.9268 217.702 75.9817 215.461 77.5555C213.18 79.1555 210.698 79.9292 208.114 79.9292H206.921L211.638 98.7678H196.193L191.434 79.9292H186.64C186.572 80.0912 186.508 80.2549 186.448 80.4197C184.764 84.9926 181.227 94.1223 179.513 98.7002H141.414ZM232.009 59.9667L232.059 59.8745C234.725 54.9394 238.675 51.55 244.178 51.55H249.004L230.181 98.7678H216.387L232.009 59.9667ZM264.082 79.93L282.304 51.55H296.622L266.33 98.7678H258.929C256.075 98.7678 253.697 97.8065 251.917 95.8591C250.126 93.8988 249.396 91.4179 249.617 88.5341L253.209 51.55H266.914L264.082 79.93ZM105.351 131.617L94.4802 158.94H80.0246L91.5554 130.22L80.9931 100.728H96.8931L102.681 116.896L119.085 100.728H136.576L105.351 131.617ZM128.943 145.542L143.725 145.541L152.723 123.036L157.219 111.722H171.126L155.536 150.454C154.52 152.908 152.902 154.96 150.672 156.548C148.412 158.158 145.946 158.94 143.37 158.94H109.907L125.409 119.974L125.461 119.878C128.106 114.979 132.051 111.722 137.485 111.722H142.412L132.12 137.543C131.059 140.209 130.001 142.876 128.943 145.542ZM183.919 135.883H183.959L180.112 145.676H195.12L195.117 145.698H207.761L206.996 147.651C206.095 149.952 205.201 152.255 204.306 154.557C203.893 155.619 203.467 156.678 203.038 157.735L202.547 158.94H174.968C171.435 158.94 168.627 157.645 166.743 154.963C164.875 152.305 164.595 149.131 165.876 145.682L175.823 120.253C176.817 117.71 178.485 115.61 180.817 114.031C183.127 112.468 185.623 111.722 188.206 111.722H193.341L183.919 135.883ZM278.692 145.542L293.474 145.541L302.471 123.036L306.967 111.722H320.875L305.284 150.454C304.269 152.908 302.651 154.96 300.42 156.548C298.16 158.158 295.695 158.94 293.119 158.94H259.656L275.158 119.974L275.21 119.878C277.854 114.979 281.8 111.722 287.234 111.722H292.161L281.869 137.543C280.807 140.209 279.749 142.876 278.692 145.542ZM208.104 66.5277C208.92 64.4244 211.271 58.4809 212.107 56.3807L195.788 56.3417C195 58.4594 192.698 64.4142 191.896 66.5301L208.104 66.5277ZM318.364 85.5038C318.383 85.4498 318.4 85.4006 318.411 85.3702C318.482 85.1724 318.561 84.9751 318.648 84.7804C318.743 84.5682 318.825 84.3455 318.907 84.1294C319.055 83.7424 319.21 83.3567 319.367 82.9713C319.582 82.445 319.792 81.9181 320.012 81.3933C320.297 80.72 320.561 80.0403 320.826 79.3623C321.177 78.4665 321.533 77.5731 321.892 76.6797C322.34 75.5596 322.796 74.4419 323.253 73.3242C323.803 71.976 324.344 70.6256 324.886 69.275C325.481 67.7908 326.083 66.3084 326.681 64.825C326.644 64.825 326.607 64.825 326.57 64.825C326.405 64.825 326.24 64.825 326.075 64.825C325.801 64.825 325.527 64.825 325.254 64.825C324.849 64.825 324.444 64.825 324.039 64.825C323.473 64.825 322.906 64.825 322.34 64.825C321.583 64.825 320.825 64.825 320.068 64.825C319.093 64.825 318.118 64.825 317.143 64.825C315.933 64.825 314.721 64.825 313.51 64.825C312.093 64.825 310.676 64.825 309.233 64.8265C309.195 64.9187 309.15 65.0159 309.09 65.1477C309.042 65.2455 309.006 65.3345 308.979 65.4037C308.881 65.6948 308.762 65.9704 308.64 66.256C308.487 66.6176 308.341 66.9817 308.208 67.3085C308.007 67.8361 307.794 68.3609 307.586 68.8862C307.312 69.5771 307.038 70.267 306.767 70.9579C306.412 71.8631 306.042 72.7646 305.672 73.6662C305.218 74.7663 304.775 75.8703 304.337 76.9744C303.8 78.3313 303.251 79.6851 302.71 81.0404C302.114 82.5293 301.512 84.0164 300.909 85.5038C300.947 85.5038 300.985 85.5038 301.023 85.5038C301.188 85.5038 301.353 85.5038 301.518 85.5038C301.788 85.5038 302.058 85.5038 302.328 85.5038C302.733 85.5038 303.138 85.5038 303.543 85.5038C304.112 85.5038 304.683 85.5038 305.252 85.5038C306.01 85.5038 306.767 85.5038 307.524 85.5038C308.492 85.5038 309.459 85.5038 310.427 85.5038C311.637 85.5038 312.849 85.5038 314.06 85.5038C315.495 85.5038 316.93 85.5038 318.364 85.5038ZM341.597 64.6971C341.557 64.8281 341.503 64.9539 341.441 65.0802C341.411 65.1446 341.385 65.2122 341.334 65.3251C341.271 65.4642 341.214 65.6183 341.159 65.7598C341.038 66.07 340.92 66.3799 340.795 66.6883C340.619 67.124 340.44 67.5571 340.257 68.0245C340.003 68.6407 339.757 69.259 339.51 69.8776C339.177 70.7129 338.844 71.5492 338.509 72.3839C338.083 73.445 337.659 74.5064 337.234 75.5675C336.701 76.8966 336.164 78.2249 335.629 79.553C334.976 81.1748 334.331 82.7987 333.689 84.4228C332.916 86.3757 332.121 88.325 331.326 90.2732L331.297 90.3471L331.259 90.4194C328.497 95.8012 324.142 98.7678 318.348 98.7678C318.318 98.7678 318.288 98.7678 318.258 98.7678C318.175 98.7678 318.093 98.7678 318.01 98.7678C317.849 98.7678 317.687 98.7678 317.526 98.7678C317.256 98.7678 316.987 98.7678 316.716 98.7678C316.322 98.7678 315.929 98.7678 315.536 98.7678C314.981 98.7678 314.425 98.7678 313.87 98.7678C313.128 98.7678 312.385 98.7678 311.643 98.7678C310.698 98.7678 309.753 98.7678 308.809 98.7678C307.624 98.7678 306.439 98.7678 305.254 98.7678C303.803 98.7678 302.352 98.7678 300.901 98.7678C299.165 98.7678 297.429 98.7678 295.693 98.7678C292.058 98.7678 289.07 97.5419 287.077 94.8098C285.167 92.1937 284.792 89.0945 285.978 85.6762C285.997 85.6023 286.021 85.5221 286.051 85.4291C286.101 85.2861 286.159 85.143 286.203 85.0516C286.272 84.8886 286.337 84.7225 286.401 84.558C286.527 84.2336 286.661 83.9242 286.789 83.6318C286.966 83.1906 287.141 82.7646 287.315 82.3226C287.56 81.6938 287.801 81.065 288.051 80.4378C288.385 79.6025 288.728 78.7694 289.062 77.9339C289.49 76.8704 289.922 75.8075 290.351 74.744C290.884 73.4243 291.412 72.1041 291.937 70.7821C292.585 69.1527 293.242 67.5254 293.896 65.8973C294.678 63.9562 295.452 62.0134 296.226 60.0699L296.269 59.9609L296.328 59.8561C299.217 54.6408 303.5 51.55 309.325 51.55C309.408 51.55 309.49 51.55 309.573 51.55C309.738 51.55 309.903 51.55 310.068 51.55C310.338 51.55 310.608 51.55 310.878 51.55C311.279 51.55 311.68 51.55 312.081 51.55C312.639 51.55 313.198 51.55 313.757 51.55C314.503 51.55 315.25 51.55 315.995 51.55C316.951 51.55 317.908 51.55 318.864 51.55C320.056 51.55 321.249 51.55 322.441 51.55C323.896 51.55 325.351 51.55 326.806 51.55C328.557 51.55 330.308 51.55 332.059 51.55C335.664 51.55 338.573 52.8091 340.56 55.5025C342.494 58.1256 342.848 61.2647 341.597 64.6971ZM225.242 117.511C226.003 115.818 227.194 114.428 228.789 113.37C230.423 112.288 232.18 111.722 234.003 111.722C235.863 111.722 237.722 111.722 239.582 111.722C241.131 111.722 242.679 111.722 244.228 111.722C245.498 111.722 246.77 111.722 248.04 111.722C249.057 111.722 250.072 111.722 251.089 111.722C251.88 111.722 252.671 111.722 253.463 111.722C254.059 111.722 254.655 111.722 255.251 111.722C255.675 111.722 256.099 111.722 256.522 111.722C256.807 111.722 257.092 111.722 257.378 111.722C257.554 111.722 257.73 111.722 257.906 111.722C257.996 111.722 258.086 111.722 258.176 111.722C258.206 111.722 258.236 111.722 258.289 111.722C261.79 111.722 264.567 113.028 266.4 115.712C268.223 118.381 268.463 121.554 267.181 125.003C266.393 126.943 265.617 128.888 264.855 130.836C264.219 132.462 263.57 134.085 262.917 135.709C262.383 137.037 261.845 138.365 261.316 139.695C260.891 140.763 260.482 141.833 260.061 142.9C259.731 143.73 259.404 144.56 259.071 145.388C258.83 145.992 258.583 146.6 258.349 147.239C258.172 147.698 257.997 148.159 257.81 148.617C257.691 148.908 257.579 149.201 257.461 149.493C257.383 149.689 257.306 149.886 257.239 150.039C257.205 150.123 257.171 150.205 257.134 150.289L257.126 150.337L256.992 150.598C254.362 155.674 250.327 158.94 244.724 158.94C242.31 158.94 239.895 158.94 237.48 158.94C235.437 158.94 233.393 158.94 231.35 158.94C229.647 158.94 227.945 158.94 226.243 158.94C224.852 158.94 223.461 158.94 222.07 158.94C220.956 158.94 219.842 158.94 218.729 158.94C217.855 158.94 216.982 158.94 216.108 158.94C215.452 158.94 214.795 158.94 214.139 158.94C213.674 158.94 213.209 158.94 212.745 158.94C212.43 158.94 212.114 158.94 211.799 158.94C211.616 158.94 211.432 158.94 211.248 158.94C211.147 158.94 211.046 158.94 210.945 158.94C210.907 158.94 210.87 158.94 210.81 158.94H208.78L209.569 156.973C210.612 154.375 211.645 151.773 212.667 149.169C213.546 146.93 214.446 144.696 215.328 142.458C216.076 140.56 216.829 138.663 217.582 136.767C218.207 135.19 218.838 133.615 219.459 132.038C219.967 130.749 220.477 129.462 220.988 128.175C221.398 127.14 221.807 126.105 222.215 125.07C222.538 124.254 222.864 123.438 223.204 122.625C223.445 122.047 223.681 121.466 223.912 120.849C224.088 120.408 224.259 119.968 224.437 119.528C224.554 119.235 224.671 118.94 224.791 118.647C224.843 118.52 224.91 118.374 224.951 118.245C224.986 118.136 225.017 118.024 225.056 117.915C225.107 117.772 225.169 117.637 225.242 117.511ZM401.411 46.621C400.517 46.5518 414.739 20.8714 414.532 11.9469C412.989 9.14793 411.543 4.10442 405.881 4.30381C400.219 4.50345 392.051 22.7942 392.051 22.7942L365.68 85.5038H352.514L359.366 70.6128H345.076C342.532 77.069 335.475 92.3273 332.891 98.7678H378.991L401.411 46.621Z" fill="#E5087F"/>
<path d="M481.647 33.7075V19.7959H487.579C489.07 19.7959 490.155 19.9224 490.83 20.1713C491.509 20.4207 492.048 20.8643 492.454 21.5025C492.86 22.1439 493.064 22.8723 493.064 23.6947C493.064 24.7408 492.759 25.6023 492.145 26.2822C491.532 26.9623 490.616 27.3899 489.395 27.5676C490.002 27.9207 490.502 28.3095 490.895 28.7337C491.291 29.1576 491.824 29.9122 492.493 30.994L494.194 33.7075H490.827L488.807 30.6702C488.083 29.5915 487.586 28.9116 487.316 28.6302C487.05 28.3517 486.768 28.1571 486.469 28.0536C486.167 27.9498 485.693 27.8979 485.043 27.8979H484.472V33.7075H481.647ZM484.472 25.6832H486.557C487.907 25.6832 488.749 25.6246 489.086 25.5114C489.421 25.3979 489.687 25.2007 489.875 24.9224C490.067 24.6434 490.161 24.2939 490.161 23.8762C490.161 23.4065 490.034 23.031 489.784 22.7397C489.534 22.4515 489.18 22.2699 488.726 22.1952C488.495 22.1633 487.81 22.1468 486.67 22.1468H484.472V25.6832Z" fill="#1A509D"/>
<path fill-rule="evenodd" clip-rule="evenodd" d="M486.91 7.48344C496.844 7.48344 504.897 15.8677 504.897 26.2093C504.897 36.5513 496.844 44.9352 486.91 44.9352C476.975 44.9352 468.922 36.5513 468.922 26.2093C468.922 15.8677 476.975 7.48344 486.91 7.48344ZM486.91 12.4164C494.227 12.4164 500.159 18.5917 500.159 26.2093C500.159 33.827 494.227 40.0023 486.91 40.0023C479.592 40.0023 473.66 33.827 473.66 26.2093C473.66 18.5917 479.592 12.4164 486.91 12.4164Z" fill="#1A509D"/>
<path fill-rule="evenodd" clip-rule="evenodd" d="M239.387 170.499C239.498 170.49 239.61 170.485 239.723 170.485H243.214C243.558 170.485 243.891 170.53 244.207 170.613C244.524 170.53 244.858 170.485 245.202 170.485H248.69C249.929 170.485 250.995 171.019 251.736 172.009C252.477 173 252.686 174.171 252.333 175.355L249.717 184.13V188.857C249.717 190.944 248.01 192.647 245.916 192.647H242.404C241.806 192.647 241.24 192.508 240.736 192.261C240.232 192.508 239.665 192.647 239.067 192.647H235.74C235.394 192.647 235.06 192.603 234.741 192.519C234.429 192.602 234.1 192.647 233.762 192.647H230.582C230.475 192.647 230.369 192.642 230.264 192.633C230.154 192.642 230.042 192.647 229.929 192.647H226.044C225.737 192.647 225.438 192.611 225.152 192.542C224.866 192.611 224.567 192.647 224.26 192.647H220.325C219.55 192.647 218.849 192.44 218.243 192.038C217.649 192.423 216.941 192.647 216.181 192.647H212.373C212.111 192.647 211.855 192.62 211.608 192.569C211.36 192.62 211.104 192.647 210.842 192.647H207.515C207.289 192.647 207.068 192.627 206.852 192.589C206.635 192.627 206.412 192.647 206.184 192.647H203.855C203.613 192.647 203.377 192.625 203.148 192.582C202.921 192.624 202.688 192.647 202.449 192.647H199.122C198.428 192.647 197.777 192.46 197.216 192.133C197.141 192.169 197.065 192.203 196.989 192.237C195.823 192.745 194.57 192.96 193.302 192.96C192.083 192.96 190.883 192.754 189.752 192.291C189.215 192.071 188.71 191.795 188.246 191.465C188.165 191.522 188.083 191.577 188 191.631C186.565 192.565 184.919 192.96 183.218 192.96C181.613 192.96 180.022 192.664 178.61 191.876C178.11 191.598 177.652 191.27 177.243 190.897C176.567 191.948 175.384 192.647 174.043 192.647H171.65C171.468 192.647 171.29 192.635 171.116 192.611C170.416 192.848 169.679 192.96 168.929 192.96C167.769 192.96 166.65 192.7 165.618 192.19C165.08 192.481 164.465 192.647 163.811 192.647H160.484C160.139 192.647 159.804 192.603 159.485 192.519C159.173 192.602 158.844 192.647 158.506 192.647H155.326C155.066 192.647 154.812 192.621 154.567 192.571C154.321 192.621 154.067 192.647 153.807 192.647H149.999C149.39 192.647 148.814 192.503 148.303 192.247C147.125 192.744 145.865 192.96 144.583 192.96C143.247 192.96 141.934 192.732 140.718 192.194C140.182 192.482 139.57 192.647 138.92 192.647H135.112C134.559 192.647 134.034 192.528 133.559 192.315C133.085 192.528 132.559 192.647 132.006 192.647H128.199C127.651 192.647 127.131 192.53 126.66 192.321C126.189 192.53 125.668 192.647 125.121 192.647H121.59C121.395 192.647 121.204 192.632 121.017 192.604C120.83 192.632 120.639 192.647 120.444 192.647H116.636C116.452 192.647 116.272 192.634 116.095 192.608C115.918 192.634 115.738 192.647 115.555 192.647H108.955C108.504 192.647 108.071 192.568 107.67 192.423C107.264 192.568 106.828 192.647 106.373 192.647H100.615C99.7394 192.647 98.9307 192.357 98.2862 191.86C97.7904 192.106 97.2631 192.288 96.7153 192.409C95.7967 192.612 94.791 192.647 93.852 192.647H89.0607C88.9538 192.647 88.8476 192.642 88.7428 192.633C88.6327 192.642 88.5208 192.647 88.4075 192.647H84.523C84.2158 192.647 83.9171 192.611 83.6307 192.542C83.3443 192.611 83.0456 192.647 82.7387 192.647H78.8042C77.67 192.647 76.6939 192.206 75.9462 191.355C75.1987 190.505 74.8876 189.482 75.0361 188.361L76.9648 173.78C77.2157 171.883 78.8142 170.485 80.733 170.485H86.2323C86.7342 170.485 87.2139 170.581 87.6535 170.755C88.0891 170.581 88.5641 170.485 89.0607 170.485H91.9051C93.3559 170.485 95.1851 170.494 96.5892 170.861C96.6202 170.869 96.6512 170.877 96.6819 170.886C97.2008 170.621 97.7809 170.485 98.4086 170.485H102.42C102.742 170.485 103.055 170.525 103.354 170.6C103.653 170.525 103.965 170.485 104.287 170.485H108.299C108.413 170.485 108.525 170.49 108.635 170.499C108.741 170.49 108.847 170.485 108.955 170.485H115.296C115.524 170.485 115.748 170.506 115.966 170.544C116.183 170.506 116.407 170.485 116.636 170.485H119.326C120.715 170.485 122.421 170.483 123.777 170.778C123.931 170.811 124.081 170.85 124.23 170.894C124.745 170.633 125.328 170.485 125.943 170.485H134.244C134.39 170.485 134.535 170.494 134.678 170.51C134.82 170.494 134.965 170.485 135.112 170.485H138.92C139.516 170.485 140.082 170.624 140.585 170.869C141.743 170.384 142.988 170.191 144.244 170.191C145.6 170.191 146.946 170.403 148.193 170.942C148.731 170.651 149.346 170.485 149.999 170.485H153.807C154.067 170.485 154.321 170.511 154.567 170.561C154.812 170.511 155.066 170.485 155.326 170.485H158.506C158.879 170.485 159.239 170.536 159.58 170.634C159.915 170.537 160.267 170.485 160.632 170.485H163.811C164.5 170.485 165.146 170.669 165.704 170.99C166.882 170.432 168.179 170.191 169.508 170.191C171.198 170.191 172.849 170.552 174.293 171.454C175.098 171.957 175.806 172.574 176.364 173.309C176.367 173.305 176.37 173.301 176.373 173.298C177.151 172.246 178.188 171.458 179.384 170.931C180.561 170.412 181.827 170.191 183.111 170.191C184.764 170.191 186.391 170.521 187.824 171.37C187.98 171.463 188.132 171.559 188.28 171.66C188.695 171.37 189.142 171.121 189.615 170.914C190.781 170.405 192.034 170.191 193.302 170.191C194.521 170.191 195.721 170.396 196.851 170.859C196.967 170.906 197.083 170.957 197.196 171.01C197.762 170.677 198.42 170.485 199.122 170.485H204.036C204.357 170.485 204.668 170.524 204.966 170.598C205.263 170.524 205.574 170.485 205.894 170.485H210.842C211.104 170.485 211.36 170.512 211.608 170.563C211.855 170.512 212.111 170.485 212.373 170.485H216.203C217.347 170.485 218.561 170.559 219.662 170.882C219.851 170.937 220.037 170.999 220.22 171.067C220.809 170.697 221.508 170.485 222.254 170.485H227.754C228.255 170.485 228.735 170.581 229.175 170.755C229.61 170.581 230.085 170.485 230.582 170.485H233.762C234.135 170.485 234.495 170.536 234.836 170.634C235.17 170.537 235.523 170.485 235.888 170.485H239.067C239.175 170.485 239.282 170.49 239.387 170.499Z" fill="#FEFEFE"/>
<path d="M86.2323 174.275L88.4075 188.857H84.523L84.3159 186.239H82.945L82.7387 188.857H78.8042L80.7327 174.275H86.2323ZM84.2145 183.658C84.033 182.005 83.8417 179.959 83.6383 177.517C83.2626 180.319 83.0251 182.365 82.9237 183.658H84.2145ZM89.0607 174.275H91.9051C93.7377 174.275 94.9799 174.358 95.6265 174.527C96.2736 174.696 96.7665 174.973 97.1023 175.357C97.4381 175.741 97.6511 176.168 97.7342 176.638C97.8174 177.111 97.8605 178.036 97.8605 179.419V184.525C97.8605 185.833 97.7985 186.709 97.6753 187.148C97.5521 187.591 97.3366 187.938 97.0311 188.187C96.7234 188.436 96.3445 188.608 95.8916 188.709C95.4418 188.807 94.7608 188.857 93.852 188.857H89.0607V174.275ZM92.8691 176.764V186.368C93.4082 186.368 93.7408 186.258 93.864 186.039C93.9904 185.818 94.0522 185.222 94.0522 184.248V178.577C94.0522 177.916 94.0304 177.492 93.9904 177.305C93.9473 177.117 93.8549 176.982 93.7038 176.896C93.5561 176.807 93.2789 176.764 92.8691 176.764ZM108.299 174.275L106.373 188.857H100.615L98.4086 174.275H102.42C102.873 178.297 103.203 181.698 103.409 184.478C103.613 181.667 103.822 179.173 104.035 176.994L104.287 174.275H108.299ZM108.955 174.275H115.296V177.188H112.763V179.971H115.129V182.737H112.763V185.944H115.555V188.857H108.955V174.275ZM116.636 174.275H119.326C121.119 174.275 122.333 174.343 122.968 174.481C123.602 174.619 124.12 174.973 124.52 175.541C124.921 176.107 125.121 177.013 125.121 178.254C125.121 179.388 124.979 180.149 124.696 180.54C124.415 180.93 123.858 181.163 123.026 181.24C123.777 181.428 124.286 181.677 124.545 181.99C124.803 182.3 124.964 182.589 125.026 182.85C125.09 183.112 125.121 183.83 125.121 185.007V188.857H121.59V184.006C121.59 183.225 121.529 182.743 121.405 182.555C121.285 182.368 120.965 182.275 120.444 182.275V188.857H116.636V174.275ZM120.444 176.764V180.008C120.869 180.008 121.165 179.95 121.335 179.833C121.504 179.717 121.59 179.336 121.59 178.693V177.891C121.59 177.428 121.507 177.124 121.344 176.979C121.18 176.835 120.879 176.764 120.444 176.764ZM134.244 174.275V177.188H132.006V188.857H128.199V177.188H125.943V174.275H134.244ZM138.92 174.275V188.857H135.112V174.275H138.92ZM148.48 178.699H144.95V177.621C144.95 177.117 144.903 176.795 144.814 176.656C144.725 176.518 144.577 176.45 144.367 176.45C144.14 176.45 143.967 176.542 143.849 176.73C143.733 176.914 143.674 177.194 143.674 177.572C143.674 178.057 143.742 178.423 143.874 178.669C144.004 178.911 144.361 179.209 144.95 179.56C146.635 180.565 147.698 181.391 148.136 182.033C148.576 182.675 148.795 183.71 148.795 185.136C148.795 186.175 148.671 186.939 148.428 187.434C148.185 187.926 147.716 188.337 147.017 188.669C146.321 189.004 145.511 189.17 144.583 189.17C143.567 189.17 142.701 188.976 141.98 188.593C141.262 188.208 140.793 187.72 140.569 187.127C140.347 186.531 140.236 185.686 140.236 184.595V183.64H143.766V185.412C143.766 185.959 143.816 186.31 143.914 186.466C144.013 186.623 144.189 186.7 144.441 186.7C144.694 186.7 144.882 186.602 145.005 186.402C145.128 186.205 145.19 185.91 145.19 185.523C145.19 184.666 145.073 184.104 144.839 183.843C144.595 183.578 144.004 183.136 143.061 182.515C142.118 181.892 141.496 181.437 141.188 181.154C140.883 180.872 140.627 180.482 140.427 179.984C140.226 179.486 140.125 178.85 140.125 178.076C140.125 176.961 140.267 176.144 140.553 175.627C140.84 175.111 141.299 174.709 141.936 174.417C142.574 174.125 143.341 173.981 144.244 173.981C145.23 173.981 146.068 174.14 146.764 174.456C147.457 174.776 147.916 175.176 148.142 175.661C148.366 176.144 148.48 176.964 148.48 178.122V178.699ZM153.807 174.275V188.857H149.999V174.275H153.807ZM163.811 174.275V188.857H160.484L158.506 182.227V188.857H155.326V174.275H158.506L160.632 180.841V174.275H163.811ZM174.043 179.658H170.236V178.334C170.236 177.498 170.202 176.976 170.131 176.767C170.06 176.555 169.89 176.45 169.626 176.45C169.397 176.45 169.24 176.54 169.157 176.721C169.074 176.899 169.034 177.363 169.034 178.107V185.099C169.034 185.75 169.074 186.184 169.157 186.39C169.24 186.595 169.403 186.7 169.65 186.7C169.921 186.7 170.103 186.583 170.202 186.35C170.297 186.116 170.346 185.658 170.346 184.979V183.252H169.607V181.04H174.043V188.857H171.65L171.299 187.812C171.039 188.264 170.713 188.602 170.322 188.829C169.927 189.056 169.462 189.17 168.929 189.17C168.291 189.17 167.697 189.016 167.139 188.706C166.585 188.396 166.163 188.014 165.876 187.557C165.586 187.102 165.408 186.623 165.333 186.122C165.263 185.622 165.226 184.869 165.226 183.867V179.535C165.226 178.143 165.3 177.133 165.451 176.503C165.602 175.87 166.033 175.292 166.745 174.767C167.456 174.242 168.377 173.981 169.508 173.981C170.621 173.981 171.542 174.207 172.275 174.666C173.008 175.123 173.489 175.664 173.711 176.291C173.933 176.921 174.043 177.83 174.043 179.028V179.658ZM187.661 180.635H183.853V178.103C183.853 177.366 183.813 176.908 183.733 176.724C183.653 176.542 183.474 176.45 183.2 176.45C182.891 176.45 182.695 176.561 182.612 176.782C182.529 177.007 182.485 177.486 182.485 178.223V184.989C182.485 185.698 182.529 186.159 182.612 186.377C182.695 186.592 182.882 186.7 183.172 186.7C183.452 186.7 183.638 186.592 183.724 186.374C183.81 186.159 183.853 185.649 183.853 184.847V183.013H187.661V183.581C187.661 185.093 187.553 186.165 187.341 186.795C187.128 187.428 186.654 187.981 185.923 188.457C185.19 188.933 184.29 189.17 183.218 189.17C182.106 189.17 181.188 188.97 180.464 188.568C179.743 188.165 179.262 187.61 179.028 186.896C178.794 186.184 178.677 185.115 178.677 183.686V179.428C178.677 178.377 178.714 177.59 178.785 177.065C178.859 176.54 179.071 176.033 179.432 175.547C179.789 175.062 180.285 174.678 180.92 174.398C181.555 174.119 182.285 173.981 183.111 173.981C184.229 173.981 185.153 174.195 185.883 174.629C186.61 175.059 187.088 175.596 187.319 176.242C187.547 176.887 187.661 177.888 187.661 179.249V180.635ZM197.693 182.823C197.693 184.288 197.659 185.324 197.588 185.932C197.52 186.543 197.304 187.099 196.941 187.603C196.577 188.107 196.084 188.494 195.465 188.764C194.846 189.035 194.125 189.17 193.302 189.17C192.52 189.17 191.821 189.041 191.198 188.786C190.575 188.531 190.073 188.15 189.698 187.64C189.319 187.13 189.094 186.574 189.019 185.975C188.949 185.373 188.912 184.322 188.912 182.823V180.328C188.912 178.862 188.946 177.827 189.016 177.219C189.084 176.607 189.3 176.051 189.663 175.547C190.027 175.044 190.52 174.656 191.139 174.386C191.758 174.116 192.48 173.981 193.302 173.981C194.085 173.981 194.784 174.109 195.407 174.364C196.029 174.619 196.531 175.001 196.907 175.51C197.286 176.021 197.511 176.576 197.585 177.176C197.656 177.778 197.693 178.828 197.693 180.328V182.823ZM193.885 178.033C193.885 177.357 193.848 176.924 193.773 176.733C193.699 176.546 193.549 176.45 193.32 176.45C193.126 176.45 192.979 176.527 192.874 176.681C192.772 176.831 192.72 177.283 192.72 178.033V184.838C192.72 185.683 192.753 186.205 192.822 186.402C192.89 186.602 193.046 186.7 193.293 186.7C193.546 186.7 193.709 186.586 193.779 186.359C193.851 186.131 193.885 185.587 193.885 184.73V178.033ZM210.842 174.275V188.857H207.515L207.506 179.013L206.184 188.857H203.855L202.459 179.234L202.449 188.857H199.122V174.275H204.036C204.175 175.158 204.326 176.196 204.489 177.382L205.028 181.083L205.894 174.275H210.842ZM212.373 174.275H216.203C217.238 174.275 218.033 174.355 218.591 174.518C219.145 174.681 219.565 174.915 219.845 175.219C220.125 175.526 220.313 175.898 220.415 176.331C220.514 176.767 220.563 177.44 220.563 178.353V179.621C220.563 180.549 220.467 181.228 220.273 181.652C220.082 182.079 219.727 182.408 219.216 182.635C218.702 182.863 218.03 182.976 217.201 182.976H216.181V188.857H212.373V174.275ZM216.181 176.764V180.478C216.289 180.485 216.382 180.488 216.459 180.488C216.807 180.488 217.047 180.402 217.183 180.229C217.315 180.06 217.383 179.704 217.383 179.163V177.962C217.383 177.464 217.307 177.139 217.149 176.988C216.995 176.838 216.671 176.764 216.181 176.764ZM227.754 174.275L229.929 188.857H226.044L225.837 186.239H224.466L224.26 188.857H220.325L222.254 174.275H227.754ZM225.736 183.658C225.554 182.005 225.363 179.959 225.16 177.517C224.784 180.319 224.547 182.365 224.445 183.658H225.736ZM239.067 174.275V188.857H235.74L233.762 182.227V188.857H230.582V174.275H233.762L235.888 180.841V174.275H239.067ZM248.69 174.275L245.916 183.578V188.857H242.404V183.578L239.723 174.275H243.214C243.753 177.13 244.065 179.047 244.142 180.03C244.361 178.475 244.712 176.558 245.202 174.275H248.69Z" fill="#1A509D"/>
<defs>
<filter id="filter0_f_676_1550" x="0.631226" y="197.262" width="574.177" height="154.491" filterUnits="userSpaceOnUse" color-interpolation-filters="sRGB">
<feFlood flood-opacity="0" result="BackgroundImageFix"/>
<feBlend mode="normal" in="SourceGraphic" in2="BackgroundImageFix" result="shape"/>
<feGaussianBlur stdDeviation="30" result="effect1_foregroundBlur_676_1550"/>
</filter>
</defs>
</svg>
