<svg width="60" height="60" viewBox="0 0 60 60" fill="none" xmlns="http://www.w3.org/2000/svg">
<path d="M44.25 17.7273H15.75C15.2101 17.7273 14.6923 17.9428 14.3105 18.3264C13.9288 18.71 13.7143 19.2302 13.7143 19.7727V44.3182C13.7143 44.8607 13.9288 45.3809 14.3105 45.7645C14.6923 46.1481 15.2101 46.3636 15.75 46.3636H44.25C44.7899 46.3636 45.3077 46.1481 45.6895 45.7645C46.0712 45.3809 46.2857 44.8607 46.2857 44.3182V19.7727C46.2857 19.2302 46.0712 18.71 45.6895 18.3264C45.3077 17.9428 44.7899 17.7273 44.25 17.7273ZM44.25 42.2727C44.25 42.8152 44.0355 43.3355 43.6538 43.7191C43.272 44.1027 42.7542 44.3182 42.2143 44.3182H17.7857C17.2458 44.3182 16.728 44.1027 16.3462 43.7191C15.9645 43.3355 15.75 42.8152 15.75 42.2727V36.1364C15.75 35.6938 15.8929 35.2631 16.1571 34.9091L22.2643 26.7273C22.4391 26.4926 22.6621 26.2984 22.9182 26.158C23.1743 26.0176 23.4574 25.9342 23.7484 25.9134C24.0394 25.8926 24.3315 25.935 24.6047 26.0377C24.878 26.1404 25.1261 26.3009 25.3321 26.5084L29.6845 30.8795L32.4327 26.8193C32.7991 26.267 33.4098 25.9275 34.0714 25.9091C34.3973 25.8962 34.7214 25.964 35.015 26.1067C35.3086 26.2494 35.5627 26.4625 35.755 26.7273L43.8429 34.9091C44.1071 35.2631 44.25 35.6938 44.25 36.1364V42.2727ZM11.6786 48.4091H9.64286V30H5.57143V48.4091H3.53571C2.99581 48.4091 2.47802 48.6246 2.09625 49.0082C1.71448 49.3918 1.5 49.9121 1.5 50.4545C1.5 50.997 1.71448 51.5173 2.09625 51.9009C2.47802 52.2845 2.99581 52.5 3.53571 52.5H11.6786C12.2185 52.5 12.7363 52.2845 13.118 51.9009C13.4998 51.5173 13.7143 50.997 13.7143 50.4545C13.7143 49.9121 13.4998 49.3918 13.118 49.0082C12.7363 48.6246 12.2185 48.4091 11.6786 48.4091ZM56.4643 48.4091H54.4286V30H50.3571V48.4091H48.3214C47.7815 48.4091 47.2637 48.6246 46.882 49.0082C46.5002 49.3918 46.2857 49.9121 46.2857 50.4545C46.2857 50.997 46.5002 51.5173 46.882 51.9009C47.2637 52.2845 47.7815 52.5 48.3214 52.5H56.4643C57.0042 52.5 57.522 52.2845 57.9038 51.9009C58.2855 51.5173 58.5 50.997 58.5 50.4545C58.5 49.9121 58.2855 49.3918 57.9038 49.0082C57.522 48.6246 57.0042 48.4091 56.4643 48.4091ZM58.5 11.5909V9.54545C58.5 9.00297 58.2855 8.4827 57.9038 8.0991C57.522 7.7155 57.0042 7.5 56.4643 7.5H3.53571C2.99581 7.5 2.47802 7.7155 2.09625 8.0991C1.71448 8.4827 1.5 9.00297 1.5 9.54545V11.5909H58.5Z" fill="white"/>
<path d="M1.5 13.6364V25.9091C1.5 26.4516 1.71448 26.9718 2.09625 27.3554C2.47802 27.739 2.99581 27.9545 3.53571 27.9545H11.6786V17.6639C11.6786 16.5695 12.6252 15.6818 13.7143 15.6818H46.2857C47.3748 15.6818 48.3214 16.5695 48.3214 17.6639V27.9545H56.4643C57.0042 27.9545 57.522 27.739 57.9038 27.3554C58.2855 26.9718 58.5 26.4516 58.5 25.9091V13.6364H1.5ZM54.4286 19.7727C53.3028 19.7727 52.3827 18.8564 52.3827 17.7273C52.3827 16.5982 53.2825 15.6818 54.4062 15.6818H54.4286C54.9685 15.6818 55.4863 15.8973 55.868 16.2809C56.2498 16.6645 56.4643 17.1848 56.4643 17.7273C56.4643 18.2698 56.2498 18.79 55.868 19.1736C55.4863 19.5572 54.9685 19.7727 54.4286 19.7727Z" fill="white"/>
</svg>
