<svg width="60" height="60" viewBox="0 0 60 60" fill="none" xmlns="http://www.w3.org/2000/svg">
<path d="M23.69 32.1599C22.8631 32.1807 22.077 32.5238 21.4994 33.116C20.9219 33.7082 20.5986 34.5027 20.5986 35.3299C20.5986 36.1571 20.9219 36.9516 21.4994 37.5438C22.077 38.136 22.8631 38.4791 23.69 38.4999C25.44 38.4999 26.86 37.0799 26.86 35.3299C26.86 33.5799 25.43 32.1599 23.69 32.1599ZM6.42 54.9899H27.52L16.97 44.4399L6.42 54.9899ZM53.4 54.9899L36.63 38.2199L25.1 49.7399L30.35 54.9899H53.4Z" fill="white"/>
<path d="M54 21.9899H47.17L30.71 5.28988C30.33 4.90988 29.66 4.90988 29.29 5.28988L12.83 21.9899H6C5.45 21.9899 5 22.4399 5 22.9899V53.5799L16.26 42.3199C16.64 41.9399 17.3 41.9399 17.67 42.3199L23.68 48.3299L35.92 36.0999C36.0125 36.0072 36.1224 35.9336 36.2434 35.8835C36.3643 35.8333 36.494 35.8074 36.625 35.8074C36.756 35.8074 36.8857 35.8333 37.0066 35.8835C37.1276 35.9336 37.2375 36.0072 37.33 36.0999L55 53.7699V22.9899C55 22.4399 54.55 21.9899 54 21.9899ZM23.69 40.4899C20.84 40.4899 18.52 38.1699 18.52 35.3199C18.52 32.4699 20.84 30.1499 23.69 30.1499C26.54 30.1499 28.86 32.4699 28.86 35.3199C28.86 38.1699 26.54 40.4899 23.69 40.4899ZM15.64 21.9899L30 7.41988L44.36 21.9999H15.64V21.9899Z" fill="white"/>
</svg>
