<svg width="60" height="60" viewBox="0 0 60 60" fill="none" xmlns="http://www.w3.org/2000/svg">
<g clip-path="url(#clip0_229_485)">
<path d="M20.0975 13.0541C20.4739 11.7234 20.5805 10.331 20.4112 8.95852C20.1281 6.68098 19.1201 4.61883 17.4962 2.99496C17.0693 2.56845 16.6058 2.18025 16.1111 1.8348C14.3925 0.634922 12.37 0.000351563 10.2625 0C9.65759 3.18443e-05 9.05388 0.0530074 8.45824 0.15832C7.83246 0.26918 7.3302 0.693047 7.11504 1.29188C6.89895 1.89293 7.01672 2.54191 7.43004 3.02789L10.7082 6.88277L6.88289 10.7081L3.02813 7.42992C2.54191 7.01648 1.89281 6.89883 1.29176 7.11504C0.692812 7.33055 0.269062 7.83281 0.15832 8.45824C0.052972 9.05383 -3.92439e-06 9.65751 2.18044e-10 10.2623C0.00046875 12.37 0.634922 14.3925 1.8348 16.1111C2.18026 16.6058 2.56847 17.0693 2.99496 17.4962C4.61883 19.1201 6.68098 20.1281 8.95852 20.4112C10.331 20.5805 11.7234 20.4738 13.0541 20.0975L20.8849 27.9284L27.9284 20.8849L20.0975 13.0541ZM39.9025 46.9459C39.5261 48.2766 39.4195 49.669 39.5887 51.0415C39.8719 53.319 40.8799 55.3812 42.5038 57.005C42.9307 57.4316 43.3942 57.8198 43.8889 58.1652C45.6076 59.3651 47.63 59.9996 49.7377 60C50.3425 60 50.9462 59.947 51.5418 59.8417C52.1672 59.7308 52.6696 59.3072 52.885 58.7082C53.1013 58.1072 52.9835 57.4582 52.5701 56.972L49.2919 53.1172L53.1172 49.2919L56.9721 52.5701C57.4581 52.9834 58.1072 53.1013 58.7081 52.8851C59.307 52.6698 59.7309 52.1675 59.8417 51.5418C59.947 50.9462 60 50.3425 60 49.7377C59.9996 47.63 59.3651 45.6076 58.1652 43.8889C57.8197 43.3942 57.4315 42.9307 57.005 42.5038C55.3812 40.8799 53.319 39.8719 51.0415 39.5887C49.669 39.4195 48.2766 39.5262 46.9459 39.9025L39.1151 32.0716L32.0716 39.1151L39.9025 46.9459ZM59.4823 4.4925L55.5075 0.517734C54.9204 -0.069375 54.0211 -0.168047 53.3208 0.277734L45.1168 5.49832C44.9171 5.626 44.7451 5.79258 44.6111 5.98814C44.4772 6.18369 44.3839 6.40421 44.337 6.63656L43.6341 10.151L22.1513 31.6338L28.3661 37.8486L49.8489 16.3658L53.3634 15.6629C53.5958 15.616 53.8163 15.5227 54.0118 15.3887C54.2074 15.2547 54.3739 15.0827 54.5016 14.8829L59.722 6.67934C60.168 5.97891 60.0695 5.07961 59.4823 4.4925ZM29.402 43.8562L16.1437 30.598C15.4573 29.9115 14.3443 29.9115 13.6579 30.598C12.9714 31.2845 12.9714 32.3974 13.6579 33.0839L14.0722 33.4983L2.57027 45.0002C-0.856641 48.4272 -0.856641 54.0029 2.57027 57.4298C5.99719 60.8568 11.573 60.8568 14.9999 57.4298L26.5018 45.9279L26.9162 46.3423C27.6027 47.0288 28.7156 47.0288 29.4021 46.3423C30.0884 45.6558 30.0884 44.5427 29.402 43.8562ZM17.6839 44.8021L8.73891 53.7471C8.05242 54.4336 6.93949 54.4336 6.25301 53.7471C5.56652 53.0606 5.56652 51.9477 6.25301 51.2612L15.198 42.3162C15.8845 41.6297 16.9975 41.6297 17.6839 42.3162C18.3703 43.0025 18.3703 44.1156 17.6839 44.8021Z" fill="white"/>
</g>
<defs>
<clipPath id="clip0_229_485">
<rect width="60" height="60" fill="white"/>
</clipPath>
</defs>
</svg>
