<svg width="60" height="60" viewBox="0 0 60 60" fill="none" xmlns="http://www.w3.org/2000/svg">
<g clip-path="url(#clip0_229_418)">
<path d="M49.3328 15.7769H46.5398L47.3236 6.33789H0L3.93316 53.6616H43.3942L44.1779 44.2226H49.3329C55.2243 44.2226 60.0001 39.4468 60.0001 33.5554V26.4439C60 20.5527 55.2241 15.7769 49.3328 15.7769ZM39.0996 32.4435C38.3218 33.6276 37.2546 34.5515 36.0161 35.144C36.6698 36.3514 36.9902 37.7261 36.9234 39.1413C36.8134 41.4723 35.6675 43.596 33.7795 44.9677C32.4633 45.9239 30.9116 46.4295 29.2922 46.4295C28.255 46.4301 27.2285 46.2199 26.275 45.8116C25.3216 45.4034 24.4611 44.8056 23.7457 44.0546C23.0303 44.8056 22.1698 45.4034 21.2164 45.8116C20.2629 46.2199 19.2364 46.4301 18.1992 46.4295C16.5798 46.4295 15.0281 45.9241 13.7119 44.9677C11.8239 43.596 10.678 41.4723 10.568 39.1413C10.5012 37.7261 10.8216 36.3514 11.4754 35.144C10.2368 34.5515 9.16957 33.6277 8.3918 32.4435C7.11059 30.4929 6.78938 28.1014 7.51055 25.8818C8.53793 22.72 11.4633 20.5956 14.79 20.5956C15.2514 20.5956 15.7105 20.6379 16.162 20.721C16.3425 19.3594 16.8915 18.0579 17.7777 16.9519C19.2368 15.1307 21.4121 14.0861 23.7458 14.0861C26.0795 14.0861 28.2547 15.1306 29.7139 16.9518C30.6001 18.0578 31.1491 19.3593 31.3296 20.7209C31.7823 20.6375 32.2417 20.5956 32.702 20.5955C36.0286 20.5957 38.9538 22.7201 39.9811 25.8817C40.702 28.1014 40.3808 30.493 39.0996 32.4435ZM52.8886 33.5561C52.8886 35.5196 51.297 37.1112 49.3335 37.1112H44.7684L45.9495 22.8885H49.3335C51.297 22.8885 52.8886 24.4802 52.8886 26.4436V33.5561Z" fill="white"/>
<path d="M36.6149 26.9757C36.0397 25.2055 34.4084 24.1353 32.7016 24.135C31.9965 24.1349 31.2788 24.3176 30.6169 24.709L26.8965 26.9089L26.8123 26.8477L27.7549 22.6296C28.3286 20.0628 26.3759 17.6256 23.7457 17.6256C21.1156 17.6256 19.1629 20.0629 19.7365 22.6296L20.679 26.8477L20.5948 26.9089L16.8744 24.7089C16.2127 24.3176 15.4946 24.1349 14.7896 24.1349C13.0827 24.1349 11.4516 25.2052 10.8763 26.9755C10.0635 29.477 11.778 32.0873 14.3965 32.3349L18.6994 32.7419L18.7317 32.8408L15.4896 35.6993C13.5168 37.4389 13.6641 40.5583 15.7918 42.1043C16.5277 42.6389 17.3694 42.8902 18.1989 42.8902C19.7679 42.8902 21.2932 41.9915 21.9766 40.4125L23.6933 36.4459H23.7975L25.5142 40.4125C26.1975 41.9914 27.723 42.8902 29.292 42.8902C30.1215 42.8902 30.9631 42.6391 31.699 42.1043C33.8269 40.5584 33.9741 37.4389 32.0012 35.6993L28.7591 32.8408L28.7914 32.7419L33.0943 32.3349C35.7131 32.0873 37.4277 29.477 36.6149 26.9757ZM25.6254 32.8115H21.6981V29.2722H25.6254V32.8115Z" fill="white"/>
</g>
<defs>
<clipPath id="clip0_229_418">
<rect width="60" height="60" fill="white"/>
</clipPath>
</defs>
</svg>
