<svg width="60" height="60" viewBox="0 0 60 60" fill="none" xmlns="http://www.w3.org/2000/svg">
<path d="M22.9688 52.9688V56.4844H19.4531C18.4815 56.4844 17.6953 57.2706 17.6953 58.2422C17.6953 59.2138 18.4815 60 19.4531 60H40.5469C41.5185 60 42.3047 59.2138 42.3047 58.2422C42.3047 57.2706 41.5185 56.4844 40.5469 56.4844H37.0312V52.9688H22.9688ZM34.7825 16.413L35.2168 14.2364L33.0402 14.6707C32.6986 14.7395 32.3443 14.705 32.0224 14.5717C31.7005 14.4384 31.4255 14.2123 31.2326 13.9222L30 12.0751L28.7674 13.9222C28.3744 14.5127 27.6567 14.8097 26.9598 14.6707L24.7832 14.2364L25.2175 16.413C25.2856 16.7546 25.2509 17.1087 25.1176 17.4305C24.9844 17.7523 24.7586 18.0273 24.469 18.2207L22.622 19.4531L24.4691 20.6857C24.7587 20.8791 24.9845 21.1541 25.1177 21.4759C25.2509 21.7977 25.2857 22.1518 25.2176 22.4933L24.7833 24.67L26.9599 24.2357C27.7936 24.064 28.6625 24.5318 28.9597 25.3686L30 28.2834L31.0403 25.3686C31.3321 24.5463 32.1766 24.0537 33.0401 24.2357L35.2167 24.67L34.7824 22.4933C34.7143 22.1518 34.749 21.7977 34.8823 21.4759C35.0155 21.1541 35.2412 20.8791 35.5309 20.6857L37.378 19.4531L35.5309 18.2205C35.2413 18.0272 35.0156 17.7522 34.8824 17.4304C34.7491 17.1086 34.7144 16.7546 34.7825 16.413Z" fill="white"/>
<path d="M49.3359 47.6953V1.75781C49.3359 0.786211 48.5497 0 47.5781 0H12.4219C11.4503 0 10.6641 0.786211 10.6641 1.75781V47.6953C10.6641 48.6669 11.4503 49.4531 12.4219 49.4531H47.5781C48.5497 49.4531 49.3359 48.6669 49.3359 47.6953ZM37.0312 42.3047H22.9688C21.9971 42.3047 21.2109 41.5185 21.2109 40.5469C21.2109 39.5753 21.9971 38.7891 22.9688 38.7891H37.0312C38.0029 38.7891 38.7891 39.5753 38.7891 40.5469C38.7891 41.5185 38.0029 42.3047 37.0312 42.3047ZM41.5219 20.9156L38.4594 22.9584L39.1804 26.565C39.237 26.8488 39.2228 27.1422 39.139 27.4192C39.0551 27.6962 38.9042 27.9482 38.6996 28.1529C38.2842 28.5701 37.692 28.7452 37.1118 28.6336L33.8399 27.9796L31.6547 34.1061C31.4059 34.8066 30.7433 35.2734 30 35.2734C29.2567 35.2734 28.5941 34.8066 28.3452 34.1061L26.16 27.9796L22.8881 28.6336C22.3113 28.7469 21.7157 28.5701 21.3002 28.1529C21.0957 27.9482 20.9448 27.6962 20.8609 27.4192C20.7771 27.1422 20.7628 26.8488 20.8195 26.565L21.5405 22.9584L18.4781 20.9156C17.9889 20.5895 17.6953 20.0401 17.6953 19.4531C17.6953 18.8661 17.9889 18.3168 18.4781 17.9906L21.5406 15.9478L20.8196 12.3412C20.7047 11.7645 20.8849 11.1688 21.3004 10.7534C21.7158 10.3379 22.3097 10.1595 22.8882 10.2727L26.4948 10.9936L28.5375 7.93125C29.1898 6.95273 30.8103 6.95273 31.4626 7.93125L33.5054 10.9937L37.112 10.2728C37.6939 10.1612 38.2845 10.338 38.6999 10.7535C39.1153 11.1689 39.2955 11.7646 39.1806 12.3414L38.4596 15.9479L41.5221 17.9907C42.0114 18.3169 42.3049 18.8663 42.3049 19.4532C42.3049 20.0402 42.0111 20.5895 41.5219 20.9156Z" fill="white"/>
</svg>
