<svg width="60" height="60" viewBox="0 0 60 60" fill="none" xmlns="http://www.w3.org/2000/svg">
<g clip-path="url(#clip0_25_439)">
<path d="M58.2422 7.03125H52.8516V3.51562H54.6094C55.581 3.51562 56.3672 2.72941 56.3672 1.75781C56.3672 0.786211 55.581 0 54.6094 0H47.5781C46.6065 0 45.8203 0.786211 45.8203 1.75781C45.8203 2.72941 46.6065 3.51562 47.5781 3.51562H49.3359V7.03125H31.7578V3.51562H33.5156C34.4872 3.51562 35.2734 2.72941 35.2734 1.75781C35.2734 0.786211 34.4872 0 33.5156 0H26.4844C25.5128 0 24.7266 0.786211 24.7266 1.75781C24.7266 2.72941 25.5128 3.51562 26.4844 3.51562H28.2422V7.03125H10.6641V3.51562H12.4219C13.3935 3.51562 14.1797 2.72941 14.1797 1.75781C14.1797 0.786211 13.3935 0 12.4219 0H5.39062C4.41902 0 3.63281 0.786211 3.63281 1.75781C3.63281 2.72941 4.41902 3.51562 5.39062 3.51562H7.14844V7.03125H1.75781C0.786211 7.03125 0 7.81746 0 8.78906V37.1484C0 38.12 0.786211 38.9062 1.75781 38.9062H58.2422C59.2138 38.9062 60 38.12 60 37.1484V8.78906C60 7.81746 59.2138 7.03125 58.2422 7.03125ZM24.7266 42.4219V46.9675L15.2096 56.4844H12.4219C11.4503 56.4844 10.6641 57.2706 10.6641 58.2422C10.6641 59.2138 11.4503 60 12.4219 60H47.5781C48.5497 60 49.3359 59.2138 49.3359 58.2422C49.3359 57.2706 48.5497 56.4844 47.5781 56.4844H44.7904L35.2734 46.9675V42.4219H24.7266ZM24.7266 56.4844H20.181L24.7266 51.9388V56.4844ZM39.819 56.4844H35.2734V51.9388L39.819 56.4844Z" fill="#1A509D"/>
</g>
<defs>
<clipPath id="clip0_25_439">
<rect width="60" height="60" fill="white"/>
</clipPath>
</defs>
</svg>
