<svg width="90" height="36" viewBox="0 0 90 36" fill="none" xmlns="http://www.w3.org/2000/svg">
<g opacity="0.9">
<path d="M47.9256 26.0355C47.1289 26.0355 46.3945 25.9133 45.72 25.6677C45.0467 25.4222 44.4945 25.0555 44.0045 24.6266C43.5145 24.1366 43.1467 23.5855 42.84 22.85C42.5945 22.1144 42.4111 21.3188 42.4111 20.3377V19.9088C42.4111 18.99 42.5334 18.2544 42.84 17.52C43.1467 16.8466 43.5134 16.2944 44.0045 15.8044C44.4945 15.3144 45.1067 15.0077 45.72 14.7633C46.3934 14.5177 47.0678 14.3955 47.8034 14.3955C48.6 14.3955 49.2734 14.5177 49.8867 14.7022C50.5 14.8866 50.9889 15.1922 51.4178 15.56C51.8467 15.9277 52.1534 16.3566 52.3978 16.8466C52.6422 17.3366 52.7656 17.8877 52.8878 18.4388H50.07C49.8867 17.9488 49.6411 17.52 49.3345 17.2133C49.0278 16.9066 48.5378 16.7844 47.8645 16.7844C47.4967 16.7844 47.1911 16.8455 46.8234 16.9677C46.5167 17.09 46.2111 17.2744 45.9656 17.5188C45.72 17.7633 45.5367 18.1311 45.4145 18.4988C45.2922 18.8666 45.2311 19.3566 45.2311 19.9077V20.3366C45.2311 20.9488 45.2922 21.4388 45.4145 21.8677C45.5367 22.2966 45.7211 22.6644 45.9656 22.9088C46.2111 23.1544 46.4556 23.3988 46.8234 23.5211C47.13 23.6433 47.4967 23.7044 47.8645 23.7044C48.4156 23.7044 48.9056 23.5822 49.2734 23.2755C49.6411 22.9688 49.9467 22.6022 50.07 22.05H52.8878C52.8267 22.6622 52.6422 23.2144 52.3978 23.7044C52.1534 24.1944 51.7856 24.6233 51.3567 24.9911C50.9278 25.3588 50.4378 25.6033 49.8256 25.7877C49.3356 25.9711 48.6611 26.0333 47.9267 26.0333L47.9256 26.0355Z" fill="black"/>
<path d="M58.6468 25.9134C57.9734 25.9134 57.4212 25.8523 56.9923 25.7301C56.5023 25.6079 56.1345 25.4234 55.8279 25.1179C55.5212 24.8123 55.2767 24.4446 55.1545 23.8923C55.0323 23.4023 54.9712 22.7901 54.9712 21.9934V11.0879H57.7279V21.6857C57.7279 22.0534 57.7279 22.359 57.789 22.5434C57.8501 22.789 57.9112 22.9723 58.0345 23.0946C58.1567 23.2168 58.2801 23.3401 58.5245 23.4012C58.7079 23.4623 58.9534 23.5234 59.2601 23.5234H59.689C59.8112 23.5234 59.9345 23.5234 59.9956 23.4623V25.7901C59.9345 25.7901 59.8123 25.7901 59.689 25.8512C59.5668 25.8512 59.4434 25.8512 59.3823 25.9123H58.6468V25.9134Z" fill="black"/>
<path d="M62.0156 14.6407H64.7722V25.7896H62.0156V14.6407ZM63.4245 13.4763C62.9345 13.4763 62.5056 13.3541 62.1989 13.0474C61.8922 12.7407 61.77 12.3741 61.77 11.9452C61.77 11.5163 61.8922 11.1485 62.1989 10.843C62.5056 10.5374 62.9345 10.4141 63.4245 10.4141C63.9145 10.4141 64.3434 10.5363 64.65 10.843C64.9567 11.1496 65.0789 11.5163 65.0789 11.9452C65.0789 12.3741 64.9567 12.7418 64.65 13.0474C64.3434 13.353 63.9145 13.4763 63.4245 13.4763Z" fill="black"/>
<path d="M72.43 26.0355C71.6333 26.0355 70.8989 25.9133 70.2244 25.6677C69.5511 25.4222 68.9989 25.0555 68.5089 24.6266C68.0189 24.1366 67.6511 23.5855 67.3444 22.85C67.0989 22.1144 66.9155 21.3188 66.9155 20.3377V19.9088C66.9155 18.99 67.0377 18.2544 67.3444 17.52C67.6511 16.8466 68.0178 16.2944 68.5089 15.8044C68.9989 15.3144 69.6111 15.0077 70.2244 14.7633C70.8978 14.5177 71.5722 14.3955 72.3078 14.3955C73.1044 14.3955 73.7778 14.5177 74.3911 14.7022C75.0044 14.8866 75.4933 15.1922 75.9222 15.56C76.3511 15.9277 76.6578 16.3566 76.9022 16.8466C77.1466 17.3366 77.27 17.8877 77.3922 18.4388H74.5744C74.3911 17.9488 74.1455 17.52 73.8389 17.2133C73.5322 16.9066 73.0422 16.7844 72.3689 16.7844C72.0011 16.7844 71.6955 16.8455 71.3278 16.9677C71.0211 17.09 70.7155 17.2744 70.47 17.5188C70.2244 17.7633 70.0411 18.1311 69.9189 18.4988C69.7966 18.8666 69.7355 19.3566 69.7355 19.9077V20.3366C69.7355 20.9488 69.7966 21.4388 69.9189 21.8677C70.0411 22.2966 70.2255 22.6644 70.47 22.9088C70.7155 23.1544 70.96 23.3988 71.3278 23.5211C71.6344 23.6433 72.0011 23.7044 72.3689 23.7044C72.92 23.7044 73.41 23.5822 73.7778 23.2755C74.1455 22.9688 74.4511 22.6022 74.5744 22.05H77.3922C77.3311 22.6622 77.1466 23.2144 76.9022 23.7044C76.6578 24.1944 76.29 24.6233 75.8611 24.9911C75.4322 25.3588 74.9422 25.6033 74.33 25.7877C73.84 25.9711 73.1655 26.0333 72.4311 26.0333L72.43 26.0355Z" fill="black"/>
<path d="M79.3523 25.7901V11.0879H82.1701V19.2357L86.2134 14.6412H89.4601L85.2945 19.3579L89.889 25.7901H86.5812L83.3956 21.2568L82.1701 22.6046V25.7901H79.3523Z" fill="black"/>
<path fill-rule="evenodd" clip-rule="evenodd" d="M7.12556 6.12556C3.02111 10.1689 1 14.0289 1 17.8878V17.9489C1 21.8078 3.02111 25.7289 7.12556 29.7722C11.1689 33.8156 15.0889 35.8367 18.9489 35.8978H19.01C22.8689 35.8978 26.79 33.8767 30.8333 29.7722C38.92 21.6856 38.9811 14.2733 30.8333 6.06444C26.7289 2.02111 22.8089 0 18.9489 0C15.0889 0 11.1689 2.02111 7.12556 6.12556ZM12.4556 24.3811C7.98334 19.9089 8.04445 15.8656 12.4556 11.4556C16.8667 7.04444 20.91 6.98333 25.3811 11.4556C29.8533 15.9278 29.7922 19.9711 25.3811 24.3811C23.1756 26.5867 21.0311 27.6889 18.9489 27.6889C16.8045 27.75 14.7222 26.6478 12.4556 24.3811Z" fill="url(#paint0_linear_167_779)"/>
</g>
<defs>
<linearGradient id="paint0_linear_167_779" x1="6.98556" y1="30.5222" x2="29.8633" y2="6.52888" gradientUnits="userSpaceOnUse">
<stop stop-color="#0078FF"/>
<stop offset="1" stop-color="#00DEFF"/>
</linearGradient>
</defs>
</svg>
