<svg width="94" height="28" viewBox="0 0 94 28" fill="none" xmlns="http://www.w3.org/2000/svg">
<g opacity="0.9">
<path d="M16.2167 3.64987C15.891 3.12363 15.4675 2.66549 14.9673 2.30022C14.4634 1.95476 13.9099 1.68731 13.3267 1.50405C12.6927 1.29727 12.0389 1.15859 11.3753 1.09173C10.6001 1.01496 9.8213 0.979054 9.04122 0.982769H2.29049C1.64415 0.922097 1.07086 1.39633 1.01018 2.04144C1.01018 2.05258 1.00771 2.06496 1.00771 2.07611V13.1011C1.9438 15.1095 3.49775 16.765 5.44298 17.8261V15.6258C5.38107 14.9126 5.90855 14.2836 6.62176 14.2217H6.62423H8.64995C11.4136 14.2217 13.5223 13.6434 14.976 12.487C16.4296 11.3305 17.1676 9.61555 17.1899 7.34344C17.1924 6.68843 17.1156 6.03589 16.9608 5.39945C16.806 4.78159 16.5559 4.19096 16.2179 3.65111L16.2167 3.64987ZM12.2606 9.28619C12.0253 9.69108 11.6749 10.018 11.2551 10.2247C10.7995 10.4427 10.3079 10.5727 9.80396 10.6098C9.25048 10.6792 8.69452 10.7126 8.13609 10.7114H6.1921C5.72653 10.7114 5.43555 10.3337 5.43555 9.78023V5.25582C5.41079 4.88436 5.69186 4.56243 6.06332 4.53642C6.10666 4.53395 6.14876 4.53519 6.19086 4.54014H8.13485C8.7651 4.54014 9.35944 4.55871 9.91664 4.59462C10.4144 4.61815 10.9023 4.73825 11.3542 4.94627C11.7702 5.132 12.1182 5.44279 12.346 5.83778C12.6048 6.36649 12.7224 6.95217 12.6902 7.53908C12.7039 8.14827 12.554 8.74881 12.2581 9.28123V9.28743L12.2606 9.28619ZM5.44917 18.4873C3.78502 17.8868 2.26944 16.9334 1.00771 15.6927V20.9922C0.949511 21.4058 1.23801 21.7884 1.65158 21.8453C1.66148 21.8466 1.67263 21.8478 1.68253 21.849H4.73349C5.54328 21.849 5.44917 20.9848 5.44917 20.9848V18.4873ZM47.3849 6.75529H44.7525C44.2337 6.72186 43.7656 7.06608 43.6455 7.57251L40.5871 15.9973C40.5871 15.9973 37.8866 8.32162 37.6848 7.72728C37.5671 7.16266 37.0731 6.75529 36.4961 6.74786H34.0729C33.2086 6.74786 33.2086 7.42269 33.3238 7.68642C33.4389 7.95016 36.7536 17.0361 38.0488 20.513C38.2531 20.9414 38.3955 21.3959 38.4735 21.8627C38.3893 22.3245 38.2147 22.7653 37.9609 23.1591C37.8618 23.3262 37.7492 23.4847 37.6229 23.6321C40.1203 22.8891 43.0239 20.1824 44.4813 17.259C45.9535 13.2088 47.8901 7.80777 47.978 7.53165C48.0721 7.10694 48.0721 6.75529 47.3837 6.75529H47.3849ZM35.6516 24.4555C35.4263 24.4493 35.2009 24.4319 34.9768 24.401C34.6994 24.3601 34.1732 24.401 34.1732 24.874V26.8997C34.1732 27.676 34.5509 27.7305 34.7465 27.7838C35.3718 27.9212 36.0107 27.9893 36.6496 27.9868C37.4062 28.0066 38.1565 27.8519 38.8437 27.5349C39.4715 27.2179 40.0299 26.7771 40.4844 26.2385C40.9995 25.6491 41.4353 24.9966 41.7808 24.2945C42.1547 23.5479 42.5101 22.722 42.8469 21.8168L43.2382 20.7433C42.4556 21.5197 38.9985 24.7799 35.6504 24.4567L35.6516 24.4555ZM31.6683 9.17846C31.5247 8.83796 31.329 8.52098 31.0876 8.2399C30.8437 7.97988 30.5663 7.75329 30.2642 7.56508C29.9373 7.3422 29.5893 7.15276 29.2241 6.99798C28.8526 6.85435 28.4712 6.73919 28.0837 6.65376C27.6392 6.55594 27.1872 6.49031 26.734 6.45812C26.2474 6.40859 25.7038 6.38383 25.1008 6.38383C21.0779 6.38383 18.7872 7.65299 18.2288 10.1913C18.1384 10.5529 18.3575 10.9194 18.7191 11.011C18.7538 11.0197 18.7884 11.0259 18.8231 11.0283H21.3008C21.9756 11.0283 21.9756 10.8191 22.2319 10.2384C22.3446 9.92263 22.5464 9.64527 22.8126 9.4422C23.4453 9.03359 24.1945 8.84167 24.9461 8.89491C25.6469 8.8231 26.3514 8.99768 26.9371 9.38772C27.3841 9.805 27.6491 10.3832 27.6726 10.9949C27.6726 11.8319 27.4163 12.3854 26.3762 12.3854C23.9121 12.2975 21.2661 12.5749 19.774 13.4317C18.2795 14.3443 17.388 15.9874 17.4388 17.7382C17.4214 18.4081 17.5576 19.073 17.8375 19.6822C18.1 20.2121 18.4813 20.674 18.9519 21.0318C19.4447 21.4342 20.0143 21.7326 20.6259 21.9097C21.3169 22.0967 22.0301 22.1871 22.7457 22.1796C23.7091 22.1945 24.6675 22.0583 25.5874 21.7747C26.401 21.4417 27.1699 21.0083 27.8757 20.4858V20.9588C27.8757 21.4243 28.0168 21.8428 28.5505 21.8428H31.4194C32.0001 21.8428 32.1351 21.4305 32.1351 20.9179V12.0808C32.1388 11.5298 32.1004 10.9788 32.02 10.434C31.9568 10.0019 31.8379 9.58088 31.6683 9.17846ZM27.7456 17.8595C27.7456 17.8595 27.0027 19.4122 24.3703 19.4122C23.7388 19.4407 23.1147 19.2686 22.5885 18.9194C22.118 18.5542 21.8629 17.9747 21.9137 17.3804C21.8542 16.5768 22.2975 15.819 23.0281 15.4772C24.0929 15.0686 25.2296 14.8779 26.37 14.9163C27.0374 14.816 27.6602 15.2754 27.7605 15.9428C27.7704 16.0059 27.7741 16.0691 27.7741 16.1322L27.7469 17.8608L27.7456 17.8595Z" fill="#333333"/>
<path d="M93.3575 12.1766C94.036 13.2675 94.036 14.6493 93.3575 15.7414C92.6826 16.7679 89.0027 20.6967 87.788 21.9584C86.7343 23.0518 85.3103 24.1587 83.9 24.1587H54.6757C50.7197 24.1587 50.4832 22.8091 50.4832 19.7978V7.51847C50.4832 4.43286 51.3945 3.53516 54.1012 3.53516H83.9669C85.3648 3.53516 86.6129 4.25084 88.0171 5.69583C89.2454 6.93156 92.8709 11.4473 93.3575 12.1766Z" fill="#33CCCC"/>
<path d="M57.1197 8.28067V8.20638C57.1197 7.80767 57.1197 7.42383 56.4449 7.42383H53.9945C53.4212 7.42383 53.3939 7.73462 53.3939 8.22V11.4604C54.361 10.1145 55.6388 9.02359 57.1197 8.28067Z" fill="white"/>
<path d="M73.5309 19.9995V19.8237V12.0069C73.5309 8.73554 72.0859 7.09863 69.1972 7.09863C68.3936 7.10854 67.6073 7.34256 66.9288 7.77346C66.1809 8.24026 65.5135 8.82346 64.9514 9.50199C64.6963 8.76897 64.2022 8.14368 63.5472 7.7264C62.8031 7.31656 61.9598 7.11721 61.1104 7.15311C59.8611 7.15807 58.6476 7.57534 57.6608 8.34179C57.4453 8.55724 53.3877 11.7171 53.3877 15.012V20.0144C53.3877 20.1691 53.3072 20.7771 53.9882 20.7771H56.5328C57.3227 20.7771 57.2484 20.2571 57.2484 20.0416V11.94C57.6732 11.3667 58.5449 9.99604 59.9824 9.99604C60.4505 9.95394 60.9049 10.1681 61.1711 10.5569C61.4596 11.1327 61.5859 11.7778 61.5351 12.4204V18.7328V20.0292C61.5351 20.184 61.4547 20.792 62.1357 20.792H64.6542C65.4442 20.792 65.3699 20.2719 65.3699 20.0565V19.8806V11.9128C65.8293 11.3395 66.7195 9.9688 68.1039 9.9688C68.5768 9.93041 69.0362 10.1434 69.3123 10.5297C69.6058 11.1042 69.7346 11.7493 69.6838 12.3932V18.7056V20.002C69.6838 20.1568 69.6033 20.7647 70.2843 20.7647H72.8289C73.625 20.7239 73.5309 20.2112 73.5309 20.002V19.9995Z" fill="white"/>
<path d="M87.565 16.82C86.6772 19.206 84.3432 20.7401 81.7999 20.6077C77.9119 20.6077 75.3191 17.9616 75.3191 13.9919C75.3191 10.0222 78.0196 7.24121 81.6649 7.24121C85.3102 7.24121 87.7408 9.76592 87.8956 13.8371C87.8956 14.3572 87.7668 14.8166 87.1131 14.8166H78.8641C78.9186 16.997 79.9649 18.1919 81.8271 18.1919C82.8375 18.2167 83.7699 17.6533 84.2169 16.7469C84.3915 16.4919 84.6837 16.342 84.9932 16.3482H87.1192C87.3533 16.3371 87.5526 16.5179 87.5638 16.7531C87.565 16.7853 87.5638 16.8163 87.5576 16.8485L87.5638 16.8212L87.565 16.82ZM81.6785 9.75849C80.132 9.75849 79.0857 10.832 78.8567 12.6002H84.3927C84.2515 11.0537 83.4133 9.75849 81.6785 9.75849Z" fill="white"/>
</g>
</svg>
