<svg width="80" height="32" viewBox="0 0 80 32" fill="none" xmlns="http://www.w3.org/2000/svg">
<g opacity="0.9" clip-path="url(#clip0_167_794)">
<mask id="mask0_167_794" style="mask-type:luminance" maskUnits="userSpaceOnUse" x="0" y="0" width="80" height="32">
<path d="M80.0001 0.0742188H0V31.9262H80.0001V0.0742188Z" fill="white"/>
</mask>
<g mask="url(#mask0_167_794)">
<path fill-rule="evenodd" clip-rule="evenodd" d="M15.821 31.2989C24.396 31.2989 31.346 24.3729 31.346 15.8279C31.346 7.28287 24.396 0.340867 15.821 0.338867C7.25095 0.338867 0.293945 7.26687 0.293945 15.8279C0.293945 24.3889 7.25295 31.2989 15.821 31.2989ZM15.819 5.64287C16.423 5.64287 17.02 5.66687 17.601 5.71987V13.9789H14.044V5.71987C14.625 5.66687 15.222 5.64287 15.819 5.64287ZM21.855 9.53587C23.242 9.78187 24.566 10.1239 25.821 10.5329H25.823V16.5089C25.823 21.9959 21.344 26.4789 15.82 26.4789C10.2959 26.4789 5.82695 21.9969 5.82695 16.5089V10.5329C7.08195 10.1229 8.40595 9.78287 9.79295 9.53587V16.4709C9.79295 21.4639 11.924 24.0869 15.82 24.0869C19.716 24.0869 21.855 21.4639 21.855 16.4709V9.53587ZM72.988 8.13287C73.508 7.27887 74.549 6.71287 75.94 6.71287C78.286 6.71287 79.419 8.20287 79.424 10.0439V14.4659H77.233V10.3529C77.233 9.47487 76.735 8.69987 75.679 8.69987C74.623 8.69987 74.103 9.44587 74.103 10.3219V14.4659H71.911V10.3219C71.911 9.44587 71.358 8.69987 70.294 8.69987C69.23 8.69987 68.771 9.47687 68.771 10.3529V14.4659H66.579V10.0419C66.579 8.20287 67.782 6.71287 70.121 6.71287C71.317 6.71287 72.458 7.27887 72.987 8.13287H72.988ZM55.307 8.70787V6.85987H48.198V8.70787H52.409L48.028 12.6189V14.4669H55.573V12.6189H50.934L55.308 8.70787H55.307ZM62.718 10.8429C62.718 12.0539 62.035 12.6119 61.024 12.6119C60.013 12.6119 59.347 12.0539 59.347 10.8429V6.85987H57.155V10.9199C57.155 13.5669 59.361 14.6069 61.031 14.6069C62.701 14.6069 64.907 13.5669 64.907 10.9199V6.85987H62.715V10.8429H62.717H62.718ZM44.399 10.8429C44.399 12.0539 43.716 12.6119 42.705 12.6119C41.694 12.6119 41.028 12.0539 41.028 10.8429V6.85987H38.836V10.9199C38.836 13.5669 41.042 14.6069 42.712 14.6069C44.382 14.6069 46.588 13.5669 46.588 10.9199V6.85987H44.396V10.8429H44.398H44.399ZM42.542 25.9729C42.878 26.1129 43.293 26.1819 43.786 26.1819C44.279 26.1819 44.747 26.0959 45.191 25.9299C45.634 25.7609 46.021 25.5149 46.352 25.1949C46.685 24.8749 46.947 24.4799 47.144 24.0099C47.341 23.5399 47.438 23.0029 47.438 22.4029C47.438 21.8029 47.341 21.2659 47.144 20.7959C46.947 20.3259 46.685 19.9309 46.352 19.6109C46.021 19.2909 45.634 19.0449 45.191 18.8759C44.748 18.7049 44.28 18.6209 43.787 18.6209C43.294 18.6209 42.896 18.6759 42.565 18.7859C42.233 18.8959 41.957 19.0209 41.735 19.1629C41.474 19.3229 41.263 19.4989 41.101 19.6899H41.011V15.6229H38.84V26.1689H41.011V24.8559H41.116C41.267 25.1059 41.469 25.3259 41.72 25.5189C41.929 25.6819 42.205 25.8329 42.541 25.9729H42.542ZM44.653 23.7259C44.286 24.0769 43.771 24.2529 43.106 24.2529C42.441 24.2529 41.928 24.0769 41.561 23.7259C41.194 23.3749 41.01 22.9319 41.01 22.3999C41.01 21.8679 41.201 21.4009 41.583 21.0589C41.965 20.7169 42.472 20.5469 43.106 20.5469C43.74 20.5469 44.285 20.7229 44.653 21.0739C45.02 21.4249 45.204 21.8679 45.204 22.3999C45.204 22.9319 45.02 23.3749 44.653 23.7259ZM59.393 18.6339H61.566V19.9859H61.687C61.817 19.7309 62.003 19.5049 62.245 19.3099C62.447 19.1429 62.721 18.9869 63.068 18.8399C63.415 18.6929 63.86 18.6199 64.404 18.6199C64.847 18.6199 65.262 18.6819 65.648 18.8059C66.034 18.9289 66.372 19.1239 66.658 19.3899C66.945 19.6559 67.169 19.9919 67.33 20.3969C67.49 20.8009 67.571 21.2839 67.571 21.8459V26.1689H65.398V22.4599C65.398 21.8129 65.222 21.3319 64.871 21.0179C64.518 20.7039 64.055 20.5479 63.482 20.5479C62.848 20.5479 62.371 20.7279 62.049 21.0839C61.728 21.4419 61.566 21.9009 61.566 22.4599V26.1669H59.393V18.6349V18.6339ZM71.554 15.6209H69.381V26.1669H71.554V22.4759L74.934 26.1669H77.498L73.998 22.2949L77.226 18.6339H74.676L71.553 22.1589V15.6209H71.554ZM57.271 23.5479V18.4409H55.024L55.041 19.6829C54.552 18.9539 53.693 18.2889 52.168 18.2889C49.545 18.2889 48.196 20.3259 48.196 22.3689C48.148 24.4379 49.673 26.4969 52.056 26.4969C53.316 26.4969 54.472 25.9369 55.025 24.9499C55.249 25.5999 55.811 26.3129 56.983 26.3129H58.284V24.4039H57.922C57.465 24.4039 57.272 24.2369 57.272 23.5479H57.271ZM52.642 24.5249C51.351 24.5249 50.388 23.6359 50.388 22.3849C50.388 21.1339 51.351 20.2759 52.642 20.2759C53.933 20.2759 54.937 21.1509 54.937 22.3849C54.937 23.6189 53.974 24.5249 52.642 24.5249Z" fill="#7000FF"/>
</g>
</g>
<defs>
<clipPath id="clip0_167_794">
<rect width="80.0001" height="32" fill="white"/>
</clipPath>
</defs>
</svg>
