<svg width="35" height="52" viewBox="0 0 35 52" fill="none" xmlns="http://www.w3.org/2000/svg">
<path d="M21.1809 49.2265C21.1809 50.3611 19.7809 51.2818 18.0543 51.2818C16.3277 51.2818 14.9277 50.3611 14.9277 49.2265V48.5684H21.1809V49.2265Z" fill="url(#paint0_linear_729_54)"/>
<path d="M14.9277 48.568C14.9277 47.433 16.3277 46.5127 18.0543 46.5127C19.7809 46.5127 21.1809 47.4327 21.1809 48.568C21.1809 49.7026 19.7809 50.6226 18.0543 50.6226C16.3277 50.6226 14.9277 49.7026 14.9277 48.568Z" fill="url(#paint1_linear_729_54)"/>
<path d="M16.8369 24.6357V48.5067C16.8369 48.9482 17.3818 49.3066 18.0542 49.3066C18.7263 49.3066 19.2712 48.9482 19.2712 48.5067V24.6357H16.8369Z" fill="url(#paint2_linear_729_54)"/>
<path d="M16.8369 24.6362C16.8369 24.194 17.3818 23.8359 18.0542 23.8359C18.7263 23.8359 19.2712 24.1936 19.2712 24.6362C19.2712 25.0774 18.7263 25.4358 18.0542 25.4358C17.3818 25.4354 16.8369 25.0774 16.8369 24.6362Z" fill="url(#paint3_linear_729_54)"/>
<path d="M18.1942 47.9941H17.9141V50.2576H18.1942V47.9941Z" fill="url(#paint4_linear_729_54)"/>
<path d="M20.6345 48.5611H19.2617V46.8486L20.6345 48.5611Z" fill="#808080"/>
<path d="M15.4717 48.5611H16.8448V46.8486L15.4717 48.5611Z" fill="#808080"/>
<path d="M32.9327 23.9648L0 43.6229V19.4075L33.3532 0L34.292 0.565859L32.9327 23.9648Z" fill="url(#paint5_linear_729_54)"/>
<path d="M34.2959 24.7649L0.942383 44.1721V19.957L34.2959 0.549805V24.7649Z" fill="#1A509D"/>
<path d="M33.3728 2.16095V24.2265L1.8645 42.5606V20.495L33.3728 2.16095ZM34.2956 0.549805L0.942383 19.957V44.1721L34.2956 24.7649V0.549805Z" fill="#E8EDF5"/>
<path d="M0.942303 44.172L0 43.6226V19.4072L0.942303 19.9569V44.172Z" fill="url(#paint6_linear_729_54)"/>
<defs>
<linearGradient id="paint0_linear_729_54" x1="14.9278" y1="49.925" x2="21.1809" y2="49.925" gradientUnits="userSpaceOnUse">
<stop stop-color="#666666"/>
<stop offset="0.4032" stop-color="#BFBFBF"/>
<stop offset="1" stop-color="#262626"/>
</linearGradient>
<linearGradient id="paint1_linear_729_54" x1="14.9278" y1="48.5677" x2="21.1809" y2="48.5677" gradientUnits="userSpaceOnUse">
<stop stop-color="#CCCCCC"/>
<stop offset="1" stop-color="#737373"/>
</linearGradient>
<linearGradient id="paint2_linear_729_54" x1="16.8369" y1="36.971" x2="19.2712" y2="36.971" gradientUnits="userSpaceOnUse">
<stop stop-color="#666666"/>
<stop offset="0.4032" stop-color="#BFBFBF"/>
<stop offset="1" stop-color="#262626"/>
</linearGradient>
<linearGradient id="paint3_linear_729_54" x1="16.8369" y1="24.6357" x2="19.2712" y2="24.6357" gradientUnits="userSpaceOnUse">
<stop stop-color="#CCCCCC"/>
<stop offset="1" stop-color="#737373"/>
</linearGradient>
<linearGradient id="paint4_linear_729_54" x1="17.9142" y1="49.1259" x2="18.1943" y2="49.1259" gradientUnits="userSpaceOnUse">
<stop stop-color="#262626"/>
<stop offset="1" stop-color="#4D4D4D"/>
</linearGradient>
<linearGradient id="paint5_linear_729_54" x1="-3.20513e-05" y1="21.8114" x2="34.292" y2="21.8114" gradientUnits="userSpaceOnUse">
<stop stop-color="#CCCCCC"/>
<stop offset="1" stop-color="#737373"/>
</linearGradient>
<linearGradient id="paint6_linear_729_54" x1="0.471183" y1="20.1519" x2="0.471183" y2="44.4936" gradientUnits="userSpaceOnUse">
<stop stop-color="#262626"/>
<stop offset="1" stop-color="#4D4D4D"/>
</linearGradient>
</defs>
</svg>
